/* XPM */
static char *d79dccfa4fe54e4df104a3bb139e3b8a2ixnwTTyulUcwwef[] = {
/* columns rows colors chars-per-pixel */
"64 65 174 2 ",
"   c black",
".  c #140000",
"X  c #1D0000",
"o  c gray7",
"O  c #1B1B1B",
"+  c #210000",
"@  c #290000",
"#  c #142726",
"$  c #272D2D",
"%  c gray18",
"&  c #3D2E2E",
"*  c #3A3A3A",
"=  c #490001",
"-  c #540001",
";  c #5F0001",
":  c #640001",
">  c #6B0001",
",  c #7D0002",
"<  c #752F32",
"1  c #354443",
"2  c gray25",
"3  c #5C5C5C",
"4  c #717171",
"5  c #797979",
"6  c #890002",
"7  c #960003",
"8  c #AF0004",
"9  c #B70004",
"0  c #B51620",
"q  c #9B3438",
"w  c #DC0005",
"e  c #D1000E",
"r  c #E60006",
"t  c #EF0006",
"y  c #FB0007",
"u  c #FB0018",
"i  c #FC1B2A",
"p  c #FC3D46",
"a  c #926B6C",
"s  c #FC4D54",
"d  c #F2585D",
"f  c #FC6E72",
"g  c #578200",
"h  c #5A8502",
"j  c #5E8902",
"k  c #5C8608",
"l  c #5D8F09",
"z  c #5F9103",
"x  c #628D04",
"c  c #688B04",
"v  c #628D09",
"b  c #659205",
"n  c #699505",
"m  c #6C9906",
"M  c #66920B",
"N  c #69950D",
"B  c #659A0C",
"V  c #6D9A0C",
"C  c #759A07",
"Z  c #73960D",
"A  c #719D0C",
"S  c #799D0B",
"D  c #648D12",
"F  c #6D8A11",
"G  c #679212",
"H  c #6B9513",
"J  c #679B13",
"K  c #6E9A13",
"L  c #6C9619",
"P  c #679919",
"I  c #6E991A",
"U  c #749515",
"Y  c #729D14",
"T  c #7A9D16",
"R  c #75951C",
"E  c #729D1B",
"W  c #7B9D1B",
"Q  c #6CA20D",
"!  c #75A30D",
"~  c #79A70F",
"^  c #6DA214",
"/  c #6FA319",
"(  c #75A215",
")  c #79A615",
"_  c #75A915",
"`  c #7BA915",
"'  c #76A11B",
"]  c #79A51C",
"[  c #76AA1C",
"{  c #7DAA1C",
"}  c #7CB11E",
"|  c #6F902C",
" . c #759F21",
".. c #7C9F2A",
"X. c #708A36",
"o. c #738C3E",
"O. c #76A221",
"+. c #7AA522",
"@. c #76AA21",
"#. c #7EA923",
"$. c #7CA529",
"%. c #7EA82B",
"&. c #7CB024",
"*. c #7FB02A",
"=. c #7FA331",
"-. c #768C48",
";. c #7B9743",
":. c #7E9352",
">. c #81A517",
",. c #81AE17",
"<. c #82A61D",
"1. c #81AD1D",
"2. c #89AE1E",
"3. c #83B21D",
"4. c #819F25",
"5. c #85A724",
"6. c #82AD24",
"7. c #83AF25",
"8. c #81AD26",
"9. c #8BAE23",
"0. c #84A52B",
"q. c #80AB28",
"w. c #82AD28",
"e. c #80A92F",
"r. c #84AF2D",
"t. c #85AF2E",
"y. c #8BAD2B",
"u. c #84B122",
"i. c #85B126",
"p. c #87B425",
"a. c #88B526",
"s. c #86B22B",
"d. c #86B22C",
"f. c #85B02F",
"g. c #89B52D",
"h. c #89B42E",
"j. c #8EBB2D",
"k. c #92B52B",
"l. c #82AB33",
"z. c #83AD31",
"x. c #86A63E",
"c. c #8AAE3D",
"v. c #86B132",
"b. c #88B233",
"n. c #88B237",
"m. c #8EB934",
"M. c #93B233",
"N. c #92BE35",
"B. c #91BB3B",
"V. c #96C334",
"C. c #829C4B",
"Z. c #82955B",
"A. c #89A748",
"S. c #91B443",
"D. c #8CA25F",
"F. c #97B35C",
"G. c #899869",
"H. c #8E8E77",
"J. c #A5B97A",
"K. c #848484",
"L. c gray55",
"P. c #8D9088",
"I. c gray57",
"U. c #AEAEAE",
"Y. c #FDAAAC",
"T. c #FDB6B7",
"R. c #C3C3C3",
"E. c gray86",
"W. c #FEC2C3",
"Q. c gray90",
"!. c gray93",
"~. c #FEE3E4",
"^. c #FFF0F0",
"/. c white",
/* pixels */
"E l.l.e.h.{ ) ' f.b.%.O.h E Y ) 1.V.V V { b A V E Y ] ( 1.3.3.N E e.l.e.h.] ) Y h.n.q.] h E Y ) 1.V.V V { b K V E Y ) S <.] K #.",
"G v Y  .%.E #.E ] ' G E I #.E Y { { { { Y A H K #.8.( V p.h.i.H H k K  .%.E #.' ' ' G E K %.' Y { { { { Y N K K #.#.! V y.+.M E ",
"] k Y +.+.L $.+.{ #.' e.#.O.v v v.8.N 8.' s.H M ' 8.( ` f.E K Y ] h Y +.+.L $.%.] #.E e.#.E v v h.8.N 8.) s.H b E #.( ` M.] K ' ",
"#.f.+.O.+.' $.$.#.N +.r.r.] ] ] a.Y ) A ( a.] ] ] ' ` { { E ] ] #.r.+.+.+.' ] q.#.N +.r.r.' ' ] h.Y ` A V i.8.] ] ' ) u.5.E ( ) ",
"r.#.] Y Y %.%.$.' #.u.' #.' N j ] m V ) ( V n M ] V m ! ! ( +.#.f.8.' Y E %.%.$.' #.i.' #.' M j ] V N ) ( V n b ] V V ! ( U ] _ ",
"8.#.( v v $.$.E G ) ) H #.' p.8.j.V ! ` ! m x n i.V N ! 3.{ K E +.8.( v v $.+.E G ) ) H #.' h.8.j.A ! { ! m b n u.J n ! 3.5.Y Q ",
"' q.n.$.E #.Y N N 8.r.N H g Y ( { n ) m A u.Y ( ] K K { u.` A A ) e.n.$. .#.Y N M 8.r.G L g Y Y { n ) m A p.A ( ] Y V ` 3.5.U Q ",
"N E l.l.e.h.{ ) ' f.b.%.O.h E Y ) 1.V.V V { b A V E Y ] ( 1.3.3.N E e.l.e.h.] ) Y h.n.q.] h E Y ) 1.V.V V { b K V E Y ) S 5.y.} ",
"N G v Y  .%.E #.E ] ' G E I #.E Y { { { { Y A H K #.8.( V p.h.i.H H k K  .%.E #.' ' ' G E K %.' Y { { { { Y N K K #.#.! V y.b.{ ",
"K ] g Y +.+.L %.+.{ #.' %.#.O.v v v.w.N 8.' f.H v ' 8.( ` h.E H Y ] g Y +.+.L %.%.] q.E e.#.E v v h.8.M 8.) h.H x E &.( ` M.W B ",
"#.+.h.E +.#.E %.e.f.j +.n.v.E #.f.m.N { N N N.+.+.#.' ) u.u.E E +.+.h.' +.#.E q.e.h.j +.n.n.I #.r.m.N { N v m.#.+.#.E ) a.y.E ( ",
"+.#.r.+.]  .E +.H #.E B. .+.r.E v #.G h H H E x E #.Y x N n x K #.#.h.#.+.O.E O.H #.E B.' #.z.Y v #.K h N L E x Y #.( b n F v B ",
"w.f.%.I  .+.{ 1.G +.e.z.#.+.e.H v O.Y g ' E K x H ] Y +.+.,.{ ` 8.f.$.I  .+.#.#.N $.e.f.$.O.r.H G E E g ' E K x P O.K ) ' 0.0.[ ",
"Y +.I D ] +.' w.' l.q.L b.E ' +.] L w.E ] K +.#.] E E v H ) 1.( Y +.L G  .+.E 8.' e.e.L b.E ' +.+.Y q.Y ] Y +.#.] ' ( b A 4.e.( ",
"+.i.Y Y E G D $. .q.+.E q.v +.r.#.E m.E E G +.h.] #.i.) { #.b.%.+.8.V ( E H D $. .%.+.E #.M $.f.+.E m.E E N +.b.] #.8.) +.0.M.@.",
"+.8.V ) G k D l.L L K #.E Y +.H E f.+.] ] ' ' ] Y i.#.h.8.H +.#.+.8.V ) H k D e.L H K +.E K +.H E r.+.] ' ] ' ] Y 8.8.a.w.R ..[ ",
"+.N.h.K E K E b.L L E E L ] ' M E b.v +.] #.Y N b { K Y +.v A #.+.m.h.K E K E b.L H E E K ] +.M E h.v ] ] #.Y N M #.V ( ] F R @.",
"M ] w.L b.w.Y #.' e.r.N v K #.s.N Y N ' M Y K V x ' v N 8.V Y ) M +.q.K b.8.K 8.' e.z.M v K +.s.N Y N E M Y K V x ( x B 8.U W ' ",
"v H #.{ h.b { +.E r.8.E A V ) a.] Y 8.) { n 8.Y h.{ A u.` { ] N M H 8.#.j.b { +.' z.%.( A V ) i.] Y 8.) { M 8.Y h.{ V 3.! 2.] B ",
"H N N 8.{ ( f.Y L r.E ' V x V 1.{ ! ( u.h.( i.( u.w.1.` o                   s.Y K z.I ) V b V 8.,.Y ) i.i.( u.) u.i.8.` m S S J ",
"E K K N v ( 8.+.+.n.r.] V j b ) 3.( V ) { { p.{ ( ) ( 3.#                   #.+.+.n.f.) V j b ) 1.( V ) 1.{ u.{ ( ] ( } m C n b ",
"E ] ] N Y ] b s.+.D q.{ ( V A 1.u.] K V ) { { 3 2 2 2 1 e w w w w w w w w r 2 2 2 2 % +.( V A { i.) V Y ] { { 3.n A A 3.) ,.A B ",
"#.E K ( ( ) j #.E g E +.#.8.w.8.8.{ ( { 3.] A $         t y y y y y y y y y           +.1.8.8.8.8.#.( { u.] A { n ` ` ` ) a.<.( ",
"w.+.K { v Y V K ' +.+.' ] s.i.' ( ) ( ( 3.c.V < ; ; ; - d d p y y y y y y y ; ; ; ; - ' ] f.f.' Y ) ( ( 3.) V { ! ( ) ` ) 2.{ [ ",
"+.+.] h.Y ' { N E %.+.E Y ] ] N M Y Y x S.    t y y y y /./.T.y y y y y y y y y y y y     C.] N M Y K b ] ( V 1.` ! Q ` ( ,.<./ ",
"L K ] #.u.Y ' N E E e.+.H Y E v M ( ( n S.    r y y y y ^./.Y.y y y y y y y y y y y y     ;.E M M ( ( n p.) m ` 3.{ ` b m 9.9.P ",
"z.] +.#.Y ) 8.#.k +.E #.8.8.x M j ( ) h.c.    r y d ^.~././.^.~.^.u y y y y y y y y y     A.x v v ( ] p.{ ` { n { 3.( u.) 9.) l ",
"E +.+.' Y s.s.] h H G b.#.E G 8.] ' K ) c.    r y f /././././././.u y y y y y y y y y     Z.H 8.] ( K ) ) ) ` n ` 1.{ } V Z N P ",
"E q.+.E v A Y w.8.+.G +.] #.+.8.N M x.x.H.: ; t y s W.T././.~.T.W.u y y y y y y y y y : : a ] #.M N Y Y { 8.u.( { { u.#.Y c c O.",
"%.e.#.#.Y 8.) ' #. .+.#.+.E Y ' N x %   ; y y y y y y y ^./.Y.y y y y y y y y y y y y y y 7     N j b ( p.h.h.i.8.` _ #.8.T x @.",
"z.L #.q.#.w.' ' r.+.e.H j.N.8.N j b *   : y y y y y y y /./.T.y y y y y y y y y y y y y y 7     j M ' ( #.i.u.s.{ Y V %.h.y.U P ",
"+.k +.#.] V Y { m.%.8.8.h.{ ' { i.( *   : y y y y y y y i i 0 X @ @ + 6 y y y y y y y y y 7     i.( N ] Y ' ( #.] ] Y %.] y.#.J ",
"L v ' 8.h.( ( N G H #.#.s.) 8.] 8.' *   : y y y y y y y y y 8         , y y y y y y y y y 7     8.' { { N Y K ' ' 8.( ' ' y.0.P ",
"D e.E b.h.g v N Y E #.h.8.Y { #.p.) *   = 9 8 t y y y y 9 8 q 5 5 3 3 < 9 8 y y y y y 8 9 >     i.) 8.{ n Y A Y K ] B H +.k.1.J ",
"] +.L E E +.Y s.Y H Y f.] 8.A m 3.u.*         r y y y y .   5 /./././.K.    y y y y y           3.3.` ` ` m V { V #.( ( ( >.a.B ",
"8.l.l. .E +.E #.E ) #.#.#.8.V n ,.` *         t y y y y @   5 /./.R.R.K.    y y y y y           ,.` ~ ~ ,.` ,.! ( ) ] [ ( S 8.( ",
"e.8.] K E r.l.%.' 8.u.' #.Y M j ) m *   3 /./.& X X X +     3 /.R.R.R.K.    + X X X   /./.I.    ) V A ` ~ m m x ) V P ( ) T ,.] ",
"8.+.( M v $.+.E G ) ) N #.' h.1.j.V %   3 /./.$             3 /.R.R./.K.              /./.I.    j.m ! { ! m b N w.K n ( p.,.A ( ",
"E l.n.$.E #.Y N M 8.f.G H g Y ( ] n C.X.:.U.U.K.5 5 5 5 5 5 5 K.K.K.K.4 3 3 3 3 3 3 3 U.U.P.-.o.{ n ) m V p.Y ( ] Y V [ 9.,.A K ",
"m E %.l.e.b.) ) ( f.b.%.+.h E Y ] 1.V.V =.    !././././././.U.        3 /.R.R.R.R.R./.    | E Y ) 8.V.V V ` n V V E ( ] K 1.u.#.",
"N G k K ' #.E #.E ] ' G E I %.E Y { ) #.F.    !././././././.U.        3 R.R.R.R.R.R./.     .%.' Y { ] { { Y V K L #.*.( V a.a.8.",
"E ] h Y +.$.L e.+.#.#.' %.#.E v M h.8.N J.    U.R.E./././././././././.Q.R.R.R.R.R.R./.    e.E v v h.w.N 8.] h.H v E %.) ) h.) B ",
"+.] h.' +.$.E e.l.s.h +.n.n.E #.8.m.M +.A.    U.R.E./././././././././.Q.R.R.R.R.R.R./.    c.I #.f.m.N ] N M m.#.#.#.E O.h.9.S ' ",
"+.8.f.+.] +.E ' H #.' B.E #.w.E M #.H j ..X.H.5 5 L.U.U.Q.Q.Q.Q.Q.Q.Q.E.R.R.5 5 5 5 5 K.| $.v.Y x #.H j H H E v Y #.E l n c c B ",
"8.l.%.I E +.{ #.G $.e.f.$.+.w.H v E E g ' E K %         U.R.R.R.R.R.R.R.R./.          l.+.+.z.H D E E h ' E K x P O.K ' ] <.<.[ ",
"Y +.L G  .+.) 8.' l.%.L n.E ' +.+.E q.Y ] K +.O         R././././././././.E.          L b.E ] +.+.Y w.K ' K +.#.) ' ' v H ) 5.' ",
"+.i.K ( E D D $. .#.] E #.G +.f.+.E m.E Y N +.m.+.#.8.] O                   D $. .%.+.E 8.M +.w.+.E m.' E N #.b.+.#.8.O.+.1.h.#.",
"+.w.V ) K k D l.L H L #.E K +.H E h.+.' ] ' ' ] Y 8.{ p.O                   D l.I H H #.E K +.H E h. .] O.) ' ] Y 8.8.h.8.A ] [ ",
"{ b.h.K E K E n.L H E E H ] E N Y b.v ] O.#.Y H M { K E C.-.Z.G.G.D.G.:.:.-.E b.L H I E H +.' M E h.v ] +.#.Y N M { Y ' +.c Y #.",
"M +.e.K b.8.K 8.' e.z.N M Y +.s.N K V ' M Y Y V x ( x N 8.V ! ( N +.w.K h.i.K #.' r.z.N b K #.s.N Y N E M Y Y N x ' j B #.A Y / ",
"M H 8.#.h.b +.+.E z.8.E A V ) a.] ^ #.) { b 8.Y j.#.V u.( 1.{ N v N #.#.h.n #.{ ' z.%.' Y V ) p.] Y 8.) { b 8.( h.{ V u.( ,.>.B ",
"H M N 8.{ Y h.Y K z.E ) V x V 8.{ ( ) i.a.( u.( 8.i.1.` m A Y V H N N w.{ Y f.Y K z.K ) V x V 1.{ Y ) i.a.( u.( u.i.8.` m S S B ",
"Y Y K N v ( #.{ +.b.f.] V j b ` { ( V ) 3.{ p.{ ( ) ( 3.A V M M Y K K N b ' { +.$.n.8.] N j b { 1.( V ) #.{ i.{ ( ` ( } V C n n ",
"E ] ] N ( ) n s.O.G %.] ( V V { p.] V ! ) { { 3.n A A 3.` { Y N E ] ] N ( ) M s.] D %.{ ( V A { u.` V A ] 1.{ ,.n A Q } ` ,.A b ",
"#.E K ( ( ) j +.E g E ] #.8.i.8.#.#.) ] 8.{ V { n ) { ` ) a.#.' #.E H ( ) ' j +.E g E +.8.8.w.8.8.#.( { u.{ V { n ) { _ ` 9.1.( ",
"%.+.Y +.v Y V K O.+.$.' ] a.s.) Y ) ( ) 1.) V { A ) ) { ) 8.#.+.%.] Y #.v Y V K  .+.+.' { s.i.] ( ) ( ( 1.) V } A ) ` { ) 2.] [ ",
"+.+.] j.Y ' { M E %.+.E L ' ] N M Y Y x ] ( V 3.` ! A ` ( #.#.E +.+.] h.Y ' { N E #. .E Y E ] N n Y V b ] ( m 3.` ( Q [ ( 2.] ' ",
"L K ] #.8.Y ( K E E e.#.H Y Y v M ( ( n 3.( m ] 1.,.{ b m s.8.I K L +.{ i.Y Y N E E e.#.L Y Y v M Y ( N p.) m { ,.,.{ z m p.8.J ",
"v.+.+.#.Y ) 8.#.k +.E #.w.8.x M x ( ] s.{ ] 1.n { 3.( u.) s.' v h. .+.#.Y ) w.8.k +.E #.w.8.x M v Y ] p.{ ] { n { 3.( i.' 9.) l ",
"E O.+.( ( f.h.] h H D h.+.E H q.) ' K ) ` ) ` n ) 3.{ 8.V H H K E +.+.' E i.s.] k H G b.+.E H 8.] ' K ) _ ) ) n ` 1.{ #.K Z Z P ",
"L %.#.' v A Y w.8.+.G ] ] 8.{ #.n M Y Y { 3.1.( { { u.8.K v k $.I w.+.' b A ( 8.w.+.G ' +.#.] #.N N Y Y { 8.u.( ] { &.&.Y c x O.",
"0.e.+.#.( 8.' ' q. .+.#.+.' Y ' N v b Y i.h.h.i.1.) ) 8.s.( v O.%.%.+.#.Y 8.' ' q. .+.%.+.' ( ' n j M ( u.h.h.p.u.) ) %.r.T v O.",
"v.L +.8.#.8.' E r.+.r.K h.N.8.N j b ' ' #.i.8.s.#.Y m 8.s.f.R I z.E $.8.#.i.' ' f.O.w.K h.N.8.M j b ' ( #.u.u.h.] ( V w.z.y.U P ",
"O.k $.#.] V Y +.m.#.%.8.h.] ] { i.( N ) ( ' ( #.] ] Y #.+.f.%.H  .k $.#.) N Y { m.#.%.u.h.] ] ] h.( N ] E ( ( #.] ] ^ q.+.y.5.P ",
"O.k $.#.] V Y +.m.#.%.8.h.] ] { i.( N ) ( ' ( #.] ] Y #.+.f.%.H  .k $.#.) N Y { m.#.%.u.h.] ] ] h.( N ] E ( ( #.] ] ^ q.+.y.5.P "
};
