/* XPM */
static char *_81eb8155fe445e6afdeaa868eb7111cAdJjMXdSr3nb7Cag[] = {
/* columns rows colors chars-per-pixel */
"64 64 247 2 ",
"   c #020302",
".  c #0B0201",
"X  c #020A02",
"o  c #04030C",
"O  c #070909",
"+  c #130201",
"@  c #170706",
"#  c #1B0202",
"$  c #130F0F",
"%  c #041404",
"&  c #080212",
"*  c #240404",
"=  c #2F320D",
"-  c #393A28",
";  c #383938",
":  c #4E371C",
">  c #483929",
",  c #51302C",
"<  c #483A36",
"1  c #573B36",
"2  c #6A2E30",
"3  c #653836",
"4  c #3A4B18",
"5  c #39472A",
"6  c #344E2B",
"7  c #3C4536",
"8  c #464B17",
"9  c #556F15",
"0  c #474428",
"q  c #52462A",
"w  c #484737",
"e  c #554737",
"r  c #485439",
"t  c #525732",
"y  c #6A533D",
"u  c #576B30",
"i  c #617B2E",
"p  c #3D3C42",
"a  c #473D42",
"s  c #3F4044",
"d  c #464547",
"f  c #45464A",
"g  c #495445",
"h  c #55504E",
"j  c #5A5949",
"k  c #694747",
"l  c #695B4E",
"z  c #795949",
"x  c #614956",
"c  c #685957",
"v  c #775A53",
"b  c #5C6359",
"n  c #616243",
"m  c #6A665B",
"M  c #76665A",
"N  c #785F62",
"B  c #6A6763",
"V  c #766769",
"C  c #885A50",
"Z  c #A25356",
"A  c #B85D5B",
"S  c #876659",
"D  c #906752",
"F  c #AF6458",
"G  c #945D66",
"H  c #B35A65",
"J  c #936A6B",
"K  c #A96466",
"L  c #B26B6E",
"P  c #A56876",
"I  c #C4676C",
"U  c #578200",
"Y  c #5A8502",
"T  c #5E8902",
"R  c #5C8608",
"E  c #5D8F09",
"W  c #5F9103",
"Q  c #628D04",
"!  c #688B04",
"~  c #628D09",
"^  c #659205",
"/  c #699505",
"(  c #6C9906",
")  c #66920B",
"_  c #69950D",
"`  c #659A0C",
"'  c #6D9A0C",
"]  c #779B0B",
"[  c #719D0C",
"{  c #648D12",
"}  c #6A8915",
"|  c #679212",
" . c #6B9513",
".. c #679B13",
"X. c #6E9A13",
"o. c #6C9619",
"O. c #679919",
"+. c #6E991A",
"@. c #729D14",
"#. c #779919",
"$. c #729D1B",
"%. c #6CA20D",
"&. c #75A30D",
"*. c #79A70F",
"=. c #6EA317",
"-. c #75A215",
";. c #79A615",
":. c #75A915",
">. c #7BA915",
",. c #76A11B",
"<. c #79A51C",
"1. c #76AA1C",
"2. c #7DAA1C",
"3. c #7CB11E",
"4. c #6B8A2C",
"5. c #759F21",
"6. c #7D9F25",
"7. c #76A221",
"8. c #7AA522",
"9. c #76AA21",
"0. c #7EA923",
"q. c #7CA529",
"w. c #7EA82B",
"e. c #7DB026",
"r. c #7FA334",
"t. c #6E8B59",
"y. c #6C9A58",
"u. c #729457",
"i. c #6DA55A",
"p. c #738F68",
"a. c #779867",
"s. c #7C897C",
"d. c #7C9876",
"f. c #76A568",
"g. c #79A56C",
"h. c #81AE17",
"j. c #85A91C",
"k. c #81AD1D",
"l. c #83B21D",
"z. c #819F25",
"x. c #87A924",
"c. c #82AE24",
"v. c #82AC2B",
"b. c #8BAD2B",
"n. c #85B124",
"m. c #88B526",
"M. c #86B22C",
"N. c #89B42E",
"B. c #8EBB2D",
"V. c #92B52B",
"C. c #82AC32",
"Z. c #88AB38",
"A. c #86B132",
"S. c #88B334",
"D. c #8EB934",
"F. c #92BB36",
"G. c #96C334",
"H. c #928458",
"J. c #94B24E",
"K. c #848969",
"L. c #87956B",
"P. c #948D77",
"I. c #869877",
"U. c #969875",
"Y. c #B49277",
"T. c #88A476",
"R. c #99AB76",
"E. c #CC857A",
"W. c #CDA87D",
"Q. c #A5C45E",
"!. c #95DB7B",
"~. c #97E27E",
"^. c #B57683",
"/. c #7F9A85",
"(. c #86918A",
"). c #879688",
"_. c #B99986",
"`. c #B8B589",
"'. c #B7AE92",
"]. c #92A8A1",
"[. c #AEB2B6",
"{. c #C88C87",
"}. c #C6AB88",
"|. c #D3A989",
" X c #C7B48B",
".X c #D7B68C",
"XX c #C7AC97",
"oX c #D6AC99",
"OX c #CAB598",
"+X c #D5B698",
"@X c #E5B59A",
"#X c #D2ACA0",
"$X c #C8B7A4",
"%X c #D7B7A5",
"&X c #9BCF8D",
"*X c #9ADA87",
"=X c #A2D98C",
"-X c #A6CC94",
";X c #A7D797",
":X c #B9D895",
">X c #9CE385",
",X c #A5E590",
"<X c #ABCAA4",
"1X c #B0C9AB",
"2X c #AED5A5",
"3X c #B8D9A6",
"4X c #B8C8B6",
"5X c #B8D4BA",
"6X c #B9E1AC",
"7X c #C4CB94",
"8X c #C9D3B3",
"9X c #F0D4AB",
"0X c #F4CEB6",
"qX c #ECD3B7",
"wX c #F6D8B9",
"eX c #B6B5C4",
"rX c #C1BFC7",
"tX c #B9C8C5",
"yX c #C4C6CA",
"uX c #CCD1CE",
"iX c #F7CCC8",
"pX c #F8D8C6",
"aX c #FDDCC4",
"sX c #FADBD1",
"dX c #D8F7CA",
"fX c #DCE8D8",
"gX c #DCFAD4",
"hX c #FBE3C5",
"jX c #E8E6D2",
"kX c #FAE4D8",
"lX c #E3F8DC",
"zX c #DEECE5",
"xX c #E5E4EB",
"cX c #E8E9EA",
"vX c #F9E9EB",
"bX c #E6F7E8",
"nX c #F2FCEE",
"mX c #E8E5F4",
"MX c #EBEBF4",
"NX c #EDECF9",
"BX c #F2EDF6",
"VX c #F2EDFD",
"CX c #EDF8F7",
"ZX c #F3F2F4",
"AX c #F4F3FC",
"SX c #F8F8FA",
"DX c #FCFDFC",
/* pixels */
" .{ ,.v.N.-.-._ _ o.0.0.n.;.c.2.n.,.<.c.' @.X.,.-.c.@.<.,.M.w.o. .{ $.c.S.-.-. ._ o.0.0.n.;.k.2.c.,.<.2._ @.X.-.,.c.-.7.7.b.x.O.",
"| w.$.S.M.U ~ _ @.$.0.N.c.X.2.2.n.;.n.2./ @.' @.X.<._ X.2.N.8.X.| v.$.S.N.U ~ _ @.$.8.N.v.@.2.2.n.;.n.2./ -.X.@. .2._ ..7.D.x.O.",
"<.8.o.+.$.8.-.n.@.X.$.M.<.c.@._ l.l.h.>.-.( &.2.' 0.@.-.-.>.m._ <.8.o.+.5.,.-.n.@.X.@.N.<.c.X._ l.l.2.>.*.( ( 2.' 2.-.&.-.j.N.` ",
"c.v.v.5.$.8.$.8.@.;.0.0.0.c.[ ^ h.>.&.*.h.>.>.>.-.;.2.;.&.-.n.-.c.v.v.7.$.8.@.c.@.,.0.c.c.c.' / h.>.*.*.h.>.l.-.-.<.>.>.] #.c.&.",
"v.0.<.@.@.C.w.w.,.c.k.,.0.@.) T ;.( [ >.*.( ( Q <.' ' &.*.;.0.0.N.0.,.X.$.C.v.v.,.c.n.,.0.@.^ T ;.( ' >.*.( ( Q <.' ' &.;.#.x.:.",
"c.0.-.~ ~ q.q.$.| ;.;. .0.,.m.c.B.' &.>.&.( Q / n.' _ &.l.2.X.$.8.c.-.~ ~ q.8.$.| ;.;. .0.,.N.c.B.[ &.2.&.( ^ / n.../ &.l.x.@.%.",
",.v.S.q.$.0.@._ _ c.v._  .U @.-.2./ ;.( [ n.@.-.<.X.X.2.n.>.[ [ ;.v.S.q.5.0.@._ ) c.v.| o.U @.@.2./ ;.( [ m.[ -.<.@.' >.l.x.#.%.",
"_ $.C.C.v.N.2.;.,.M.S.w.7.Y $.@.;.k.G.' ' 2.^ [ ' $.@.<.-.k.l.l._ $.v.; d N.<.;.@.N.S.v.<.Y $.@.;.k.G.' ' 2.^ X.' $.@.;.] x.b.3.",
"_ | ~ @.5.w.$.0.$.<.,.| $.+.0.$.@.2.2.2.2.@.[  .X.0.c.-.' m.N.n. .} uXZXf 4.$.0.,.,.,.| $.X.w.,.@.2.2.2.2.@._ X.X.0.0.&.' b.S.2.",
"X.<.U @.8.8.o.w.8.2.0.,.w.0.7.~ ~ A.v._ c.,.M. .~ ,.c.-.>.N.$. .} ; ZXDX; i o.w.w.<.v.$.v.0.$.~ ~ N.c.) c.;.N. .Q $.e.-.>.D.#.` ",
"0.8.N.$.8.0.$.w.v.M.T 8.S.A.$.0.M.D._ 2._ _ F.8.8.0.5.+.4.4.i i 8XAXZXxXuXR.u u r.N.T 8.S.S.+.0.v.D._ 2._ ~ D.0.8.0.$.;.m.b.$.-.",
"8.0.v.8.<.5.$.8. .0.$.F.5.8.v.$.~ 0.| Y  . .$.Q $.0.u ; f f f p mXNXNXSXyXyXf f f f ; F.,.0.C.@.~ 0.X.Y _ o.$.Q @.0.-.^ / } ~ ` ",
"v.M.w.+.5.8.2.k.| 8.v.C.0.8.v. .~ 7.@.U ,.$.u t t u uXAXMXAXxXSXrX[.AXAXmXAXmXMXSXMXd M.q.7.v. .| $.$.U ,.$.X.Q O.7.X.;.,.x.x.1.",
"@.8.+.{ <.8.,.v.,.C.v.o.S.$.,.8.<.o.v.$.<.X.t s f f xXxXSXAXMXMXyXyXMXAXNXSXmXZXxX8Xr u S.$.,.8.8.@.v.@.<.@.8.0.<.,.-.^ [ z.v.-.",
"8.n.@.@.$.| { q.5.v.8.$.v.~ 8.v.0.$.D.$.r w cXMXDXxXAXVXmXmXVXMXNXmXAXAXMXmXyXyXf d 8.$.0.) q.M.8.$.D.$.$._ 8.S.<.0.c.;.8.x.V.9.",
"8.c.' ;.| R { C.o.o.X.0.$.@.8. .$.M.8.<.g d ZXAXxXxXmXAXVXVXAXVXAXAXVXmXAXMXyXuXf f C.8.$.X.8. .$.v.8.<.,.<.,.<.@.c.c.m.v.#.6.1.",
"8.F.N.X.$.X.$.S.o.o.$.$.o.<.,.) $.S.O   jXBXcXMXSXMXmXmXNXAXMXMXMXMXVXVXSXNXMXNXyXeX  . X.<.8.) $.N.~ <.<.0.@._ ) 0.' -.<.} #.9.",
") <.v.o.S.v.@.0.,.v.v._ ~ X.0.M._ @.  O xXcXZXZXMXZXBXSXSXNXAXmXZXAXVXVXVXMXmXNXyXrX$   ~ X.8.M._ @._ $.) @.X.' Q -.Q ` c.#.#.,.",
"~  .0.2.N.^ 2.8.$.v.c.$.[ ' ;.m.<.@.O O DXSXMXcXBXMXBXMXMXNXMXSXcXAXNXVXVXBXVXVXNXMX  . Z.' ;.n.<.@.c.;.2.) c.@.N.2.' l.&.j.<.` ",
" ._ _ c.2.-.M.@.o.v.$.,.' Q ' k.2.&.          o o o & o o o       o & & & o o     O uX  bX^ ' n.h.@.;.n.n.-.n.;.n.n.c.>.( ] ] ..",
"$.X.X._ ~ -.c.8.8.S.v.<.' T ^ ;.o & (.(.tX4XCXCXNXSXmXVXVXmXCXxXcXMXNXVXAXMXZXcX4XyXs.s.O   ^ ;.k.-.' ;.k.2.n.2.-.<.-.3.( ] / ^ ",
"$.<.<._ @.<.^ M.8.{ v.2.-.' [ k.    (.).5X5XbXbXzXMXMXNXMXmXAXCXCXCXMXAXxXSXnXnX5X1X).s.O   -.2.n.;.' @.<.2.2.l./ [ [ l.;.h.[ ` ",
"0.$.X.-.-.;.T 0.$.U $.8.0.c.v.c.  % 1X<Xg.y.g.T.4X8XnXcXcXCXzXbXbXCXCXAX8X4XI.a.a.a.1X5XX O 8Xn.c.0.-.2.n.<.[ 2./ >.>.>.;.m.j.-.",
"v.8.X.2.~ @.' X.,.8.8.,.<.M.n.,.X % -X-Xi.i.i.y.2X8XlXbXbXnXzXbXbXbXCXbX4X<Xg.f.f.f.2X5XX X DX,.@.;.-.-.l.;.' 2.&.-.;.>.;.j.2.1.",
"8.8.<.N.@.,.2._ $.w.8.$.@.<.<. .X % -X;X*X>X,X*Xy.u.L.).I.(.).)./.(.s.).I.g.=X>X*X*X;X-X%   DX_ ) @.X.^ <.-.' k.>.&.%.>.-.h.j.=.",
"o.X.<.0.n.@.,._ $.$.v.8. .@.$.~ X % -X&X,X!.~.!.i.a.a.I.).).(./.).s.s.d.t.f.*X>X~.*X=X2X% X DX) ) -.-./ m.;.( >.l.2.>.^ ( x.x.O.",
"C.<.8.0.@.;.c.0.R 8.$.0.c.c.Q  .7 5 d.g.=X,X*X*X=X-XgXlXbXbXtXtXzXbXlXgX2X=X*X>X~.,Xy.a.4 - SX~ ~ -.<.m.2.>.2./ 2.l.-.n.;.x.;.E ",
"$.8.8.,.@.M.M.<.Y  .| S.0.$.| c.w w I.a.-X=X*X*X;X;XgXgXbXCXtXuXnXlXgXdX-X;X*X>X*X=Xu.L.0 w DXjX<.-.X.;.;.;.>./ >.k.2.3.' ] _ O.",
"$.v.8.$.~ [ @.v.c.8.| 8.<.0.g w $X'.0 0 a.g.f.i.&X;X;X<XgXbXfXbXbXgX3X;X&X;Xy.f.f.u.4 8 `.$Xd a jX_ @.@.2.c.n.-.2.2.n.0.@.! ! 7.",
"w.v.0.0.@.c.;.,.0.5.8.0.8.$.r w $X+X: 0 R.p.g.f.;X&X;X6XdXlXnXbXbXdX3X:X;X3Xa.a.T.p.t q '.$X< a 8XT ^ -.m.N.N.n.c.>.:.0.c.#.Q 9.",
"C.o.0.v.0.v.,.,.v.8.v. .B.F.  @ %X{.S z > w 6 6 a.f.f.t.T.I.p.I.d.T.u.y.a.a.6 6 5 0 y z OX$X+ . J.) ,.-.0.n.n.M.2.@.' w.N.b.#.O.",
"8.R 8.0.<.' @.2.D.q.0.c.N.2.$ . '.oXv v e e 5 7 )./.d.a.T.L.U.K.L.T.a.T.d.d.r 5 q q S C XX$X. $ M.-._ <.@.,.-.0.<.<.@.w.<.b.0...",
"o.~ ,.c.N.-.-._ |  .0.0.M.;.c.<.  . v S XX_.< ; [.].g 5 `.`.W..X X`.5 6 ].[.w 1 +XoXC v # + 8X8.c.,.2.2._ @.X.,.,.c.-.,.,.b.x.O.",
"{ v.$.S.N.U ~ _ @.$.0.N.c.@.2.0.O   c v +X+Xe a eXeX7 w OX}..XW..X Xw g eX[.k : @X|.C k # . 2.2.n.;.c.2./ @.[ @.X.<.`  .8.V.k...",
"<.8.o.$.$.8.@.M.@. .@.M.<.c.[ ( l.n.# * |.|.}.OXvXvX@ # aXhXwXaX9XwX    MXvXoX@X|.+X# + Q.n.@.( l.l.>.>.>.( ' 2.' 0.-.-.-.j.m.` ",
"c.C.C.5.$.8.$.0.$.;.0.0.0.c.' / h.>.+ # OX+X+XOXkXkX* * pXpXqXqX9XwX. . vXvX}.|.+XXX# . S.c.' ^ h.>.*.*.h.>.h.&.-.;.<.1.-.] c.-.",
"v.c.<.X.$.v.C.w.,.c.n.,.0.@.) T ;.( &.>.. # XX XhXpXiXiXsXiXkXsX0X0XaXkXpXqX%XXX+ @ DX7X0.@.^ T ;.' [ >.*.( ( Q ;.' O.-.;.#.h.<.",
"c.8.-.) ~ q.8.$.| ;.;._ 0.,.N.k.B.' &.>.o . $X+X9XwXaXpXpXiXiXiX0XaX0XhXaXaX%X$X    SX .0.,.N.c.B.( &.2.&.( ^ _ v.X./ -.m.h.[ -.",
"$.C.S.q.$.0.@._ ) c.M.|  .U @.-.<./ >./ & $ > : .XW.wXwX0XaXoXoXaX0XaXqXOXOX> < .   DX{ X.U @.-.2./ ;.( ' m.@.-.<.@.' 1.x.h.[ X.",
"( $.w.C.v.S.;.;.-.M.S.w.8.Y $.@.<.k.G.' &   - t +X.XwXhX9XwX|.oXaXhXqXqX+XXXk h & o DX:X8.Y $.@.;.c.G.' ' >./ ' ' $.-.<.X.k.n.0.",
"_ | R X.,.0.$.0.$.<.,.| $.+.w.$.@.2.; h h b I.L.4 q > : .X.X|..X+X$X0 e q > N x V B w w 7.X.w.,.@.2.<.2.2.@.' X.o.0.e.-.' m.m.c.",
"$.<.Y @.8.q.o.v.8.0.0.,.w.0.$.~ ) N.w - B b ).I.6 5 0 e  X.X|.+XOX'.w 0 > > J V c c w g J.0.$.~ ~ N.v._ c.<.N. .~ $.w.;.;.N.;.` ",
"8.<.N.,.8.q.$.v.C.M.Y 8.S.S.$.0.. # XX%Xl m m g p.p.I.p.r 0 : > w > M v M S c c B m '.XX# . +.0.M.D._ <._ ) D.0.0.0.$.7.N.x.] ,.",
"8.c.M.8.<.8.$.,. .0.,.F.$.0.v.$.. * oXoXz M l m U.L.I.a.6 w q > w ; M v z v S c c m OXXX* + A.@.Q 0. .T  . .$.~ @.0.$.E / ! ! ` ",
"c.C.w.+.$.8.2.0.| q.v.M.q.8.  . 7XhXwXaX+X#X> 1 _.Y.U.L.T.K.S J b b M z {.{.2 k $X$XhXhXwXjX= 4 { $.$.Y ,.$.X.Q O.7.X.,.<.j.j.1.",
"@.8.o.| 5.8.;.c.,.C.w.o.S.$.    hXqXwX0X%X#X1 3 E.E.H.H.R.K.J S B m y C I {.2 , $X'.pXpXwXpXO 4 8.@.v.X.,.X.8.0.;.,.,.~  .;.x.,.",
"8.n.X.-.$.{ { q.5.0.<.$.0.| O . $XOXpXpX0 e < 3 Z A F D y n U.U.K.P.K A H H 3 e 5 5 sXpXoX%X. 9 8.$.D.,.$._ 0.S.8.0.c.7.8.k.N.0.",
"8.v.' ;.X.R { C.o. .o.0.$.X.O . '.OXsXsXw w < , K A A L z j U.L.P.P.K A H K , 5 r 5 kXsXoXoX8 9 $.N.5.<.7.;.,.<.@.c.c.N.c.[ <.1.",
"2.S.N.X.$.X.$.S.o. .$.$. .<.$._ @ + # + w w V v 3 2 K Z 3 < 7 7 w 1 L H 2 3 l j 7 -   + # = ,.) $.N.~ <.8.0.@._ ) 2.@.,.8.! @.0.",
") 8.v.X.S.c.X.c.,.v.C._ ) @.8.M.. @ . $ ; < V v , 3 J S 1 e ; d ; 1 P G , , l m g h   X % = 0.M._ @._ $.) @.@._ Q ,.T ` 0.[ @.=.",
")  .c.0.N.^ 8.8.$.C.c.$.[ ' ;.m.<.=.J.R.% X < < v M M l m j d ; V m c V c v 1 , .   w.,.@.' ;.m.<.@.c.;.2.^ c.-.N.2.' n.-.h.j.` ",
" .) _ c.2.@.N.@.X.C.$.;.' Q ' c.2.-.J.-XO   < 1 v v l j b b d d c m b b c v k 3 # . X.;.' Q ' k.2.@.;.n.m.-.n.-.n.n.c.>.( ] ] ` ",
"@.@.X._ ~ -.0.2.8.S.M.<.' T ^ >.2.-.C.[.@ # G ^.K P # .   O   . + +     J P P P # # c.<._ T ^ 2.k.-.' ;.0.2.n.2.-.>.-.3.' ] / / ",
"$.<.<._ -.;./ M.7.| w.<.-.' ' 2.m.<.q.Z.. * P G L J # .     . @ + +   . J ^.P J * # w.2.-.' [ 2.n.>.' [ <.k.2.h./ [ %.3.>.h.[ ^ ",
"0.$.X.-.-.;.T 8.$.U $.<.0.c.n.c.0.0.;.<.J.`.* * # + 8XD.c.N.c.,.0.$. .J.* # # @ Z.U $.8.c.c.v.c.c.0.-.2.n.2.' 2./ ;.2.:.>.x.k.-.",
"w.8.@.8.~ @.' X.7.8.q.,.<.m.M.;.@.;.-.;.k.J.. . .   uX2.;.c.0.8.w.<.@.J.# #     5.8.8.,.2.M.n.<.-.;.-.-.k.;.' 3.[ ;.>.2.;.j.<.1.",
"8.8.<.B.@.,.2.) $.w.8.$.o.,.<._ ) @.@.Q <.-.@.J.Q.J.8.>.-.0.0.$.8.8.<.N.@.,.2._ $.0.5.$.@.$.<._ / @.' ^ <.-.( l.>.-.%.1.-.j.<.,.",
"o.X.<.0.c.@.-.X.$.$.v.0. .@.@.~ ) -.-./ l.-.( <.k.h.2.^ ( M.c.+.X.o.8.2.n.@.@._ $.$.v.0.o.@.@.~ ) @.-._ m.;.( 2.h.h.2.W ( m.c...",
"A.8.8.0.@.;.c.0.R 8.$.0.v.c.Q ) Q -.<.M.2.<.k./ 2.l.-.n.;.M.,.~ N.5.8.0.@.;.v.c.R 8.$.0.v.c.Q ) ~ @.<.m.2.<.2./ 2.l.-.n.,.x.;.E ",
"$.7.8.-.-.M.N.<.Y  .{ N.8.$. .v.;.,.X.;.>.;.>./ ;.l.2.c.'  . .X.$.8.8.,.$.n.M.<.R  .| S.8.$. .c.<.,.X.;.:.;.;./ >.k.2.0.X.] ] O.",
"o.w.0.,.~ [ @.v.c.8.| <.<.c.2.0./ ) @.@.2.l.k.-.2.2.n.c.X.~ R q.+.v.8.,.^ [ -.c.v.8.| ,.8.0.<.0._ _ @.@.2.c.n.-.<.2.e.e.@.! Q 7.",
"x.v.8.0.-.c.,.,.v.5.8.0.8.,.@.,._ ~ ^ @.n.N.N.n.k.;.;.c.M.-.~ 7.w.w.8.0.@.c.,.,.v.5.8.w.8.,.-.,./ T ) -.n.N.N.m.n.;.;.w.v.#.~ 7.",
"A.o.8.c.0.c.,.$.v.8.v.X.N.F.c._ T ^ ,.,.0.n.c.M.0.@.( c.M.M.#.+.C.$.q.c.0.n.,.,.M.7.v.X.N.F.c.) T ^ ,.-.0.n.n.N.<.-.' v.C.b.#.O.",
"7.R q.0.<.' @.8.D.0.w.c.N.<.<.2.n.-._ ;.-.,.-.0.<.<.@.0.8.M.w. .5.R q.0.;._ @.2.D.0.w.n.N.<.<.<.N.-._ <.$.-.-.0.<.<.=.v.8.b.x.O."
};
