/* XPM */
static char *a275882f3bb04615d77046479182f64eDzcmPZRi1y6YxeOL[] = {
/* columns rows colors chars-per-pixel */
"64 64 256 2 ",
"   c #0C0201",
".  c #030C00",
"X  c #080801",
"o  c #160700",
"O  c #051700",
"+  c #141300",
"@  c #1A1B01",
"#  c #120C13",
"$  c #250502",
"%  c #370B00",
"&  c #241400",
"*  c #2A1701",
"=  c #371600",
"-  c #381318",
";  c #301514",
":  c #1B2501",
">  c #052100",
",  c #2B2405",
"<  c #362703",
"1  c #333010",
"2  c #2E1A2A",
"3  c #342D30",
"4  c #1F2523",
"5  c #46160C",
"6  c #442704",
"7  c #4B2216",
"8  c #4B3719",
"9  c #573516",
"0  c #53310D",
"q  c #4D1D25",
"w  c #4A2426",
"e  c #582729",
"r  c #57372B",
"t  c #47383A",
"y  c #5A3836",
"u  c #492C35",
"i  c #642F35",
"p  c #6A3939",
"a  c #763838",
"s  c #683526",
"d  c #6B2F15",
"f  c #3B4218",
"g  c #584319",
"h  c #545215",
"j  c #6E4811",
"k  c #4B7101",
"l  c #707118",
"z  c #55492F",
"x  c #694425",
"c  c #7A4A2A",
"v  c #7B4536",
"b  c #795139",
"n  c #6E5333",
"m  c #6C7830",
"M  c #3B3643",
"N  c #483C4B",
"B  c #653947",
"V  c #7A3E43",
"C  c #3D4256",
"Z  c #564C4C",
"A  c #7A4448",
"S  c #6A4A52",
"D  c #705450",
"F  c #767052",
"G  c #5A586E",
"H  c #6D5768",
"J  c #756E6E",
"K  c #536A43",
"L  c #8C3F37",
"P  c #855A0E",
"I  c #906D13",
"U  c #865C2C",
"Y  c #845737",
"T  c #914738",
"R  c #A8453B",
"E  c #B8493A",
"W  c #8A6335",
"Q  c #956D35",
"!  c #AA7A18",
"~  c #C6513F",
"^  c #8C3C44",
"/  c #86584A",
"(  c #904F4F",
")  c #AB4A47",
"_  c #B54A49",
"`  c #AC5448",
"'  c #B5554A",
"]  c #AC4E54",
"[  c #A95958",
"{  c #B65657",
"}  c #B04851",
"|  c #886648",
" . c #936B54",
".. c #A76E58",
"X. c #855A69",
"o. c #AA5D63",
"O. c #B65C67",
"+. c #8E6E6D",
"@. c #BC6A66",
"#. c #AD756C",
"$. c #CE5953",
"%. c #D5665A",
"&. c #C76554",
"*. c #ED6B5C",
"=. c #E76A58",
"-. c #E4735A",
";. c #E87258",
":. c #EF6D5C",
">. c #D56966",
",. c #DA7466",
"<. c #D87977",
"1. c #CD7270",
"2. c #E86C68",
"3. c #F26E63",
"4. c #E47364",
"5. c #E3726A",
"6. c #EB7366",
"7. c #F57466",
"8. c #EB7575",
"9. c #EB5F48",
"0. c #5C8B01",
"q. c #5A8604",
"w. c #5E9406",
"e. c #5A8915",
"r. c #628D04",
"t. c #638E0A",
"y. c #688B08",
"u. c #649204",
"i. c #699505",
"p. c #6B9B03",
"a. c #66920B",
"s. c #6A950C",
"d. c #65990B",
"f. c #6D9A0C",
"g. c #659906",
"h. c #719E0E",
"j. c #71940B",
"k. c #678B15",
"l. c #659413",
"z. c #6B9512",
"x. c #6E9A13",
"c. c #6B941A",
"v. c #6D9A19",
"b. c #669B13",
"n. c #729D14",
"m. c #739D1B",
"M. c #779B18",
"N. c #73861D",
"B. c #6CA10A",
"V. c #75A40D",
"C. c #6DA213",
"Z. c #6DA21B",
"A. c #6CA619",
"S. c #75A214",
"D. c #79A516",
"F. c #75A914",
"G. c #7BAB14",
"H. c #75A21B",
"J. c #7AA51C",
"K. c #75A91B",
"L. c #7CAA1C",
"P. c #7CB119",
"I. c #768928",
"U. c #749C23",
"Y. c #779728",
"T. c #7B8A39",
"R. c #789735",
"E. c #6A8B2C",
"W. c #6FA221",
"Q. c #75A121",
"!. c #7BA523",
"~. c #75AA22",
"^. c #7DAA23",
"/. c #7CA52B",
"(. c #7EA92A",
"). c #77A529",
"_. c #7DB225",
"`. c #7DA734",
"'. c #5D8626",
"]. c #7B9647",
"[. c #798A45",
"{. c #71806D",
"}. c #81AD1D",
"|. c #80A419",
" X c #83B21D",
".X c #82B81C",
"XX c #818D38",
"oX c #869639",
"OX c #829429",
"+X c #AD882C",
"@X c #81AD24",
"#X c #82AC2B",
"$X c #84A827",
"%X c #84B224",
"&X c #89B425",
"*X c #86B22A",
"=X c #89B52C",
"-X c #8CBA2D",
";X c #86B82A",
":X c #87A837",
">X c #8BB532",
",X c #8EB932",
"<X c #88B436",
"1X c #93BA38",
"2X c #96AF39",
"3X c #9D9314",
"4X c #C6960A",
"5X c #CDA535",
"6X c #DFAC2F",
"7X c #93C234",
"8X c #888648",
"9X c #879845",
"0X c #8B9554",
"qX c #998E4D",
"wX c #B69055",
"eX c #89A643",
"rX c #91AD4A",
"tX c #8C8C66",
"yX c #AC906B",
"uX c #B4AA6E",
"iX c #8BA161",
"pX c #C49B52",
"aX c #D39176",
"sX c #D6B178",
"dX c #C8AD46",
"fX c #9CC044",
"gX c #907486",
"hX c #AA7B83",
"jX c #DE7D86",
"kX c #9A978F",
"lX c #B39296",
"zX c #BDAD9D",
"xX c #BDA0A5",
"cX c #DC8685",
"vX c #CD9294",
"bX c #E78B8A",
"nX c #D8A884",
"mX c #D2A890",
"MX c #E6B792",
"NX c #CDB3B0",
"BX c #EEB5B3",
"VX c #F2C297",
"CX c #DEC7B5",
"ZX c #E8CDBA",
"AX c #F0CFB4",
"SX c #E9D6A3",
"DX c #D1BAC2",
"FX c #ECD2D0",
"GX c #FFE4DA",
"HX c #F8E8D0",
"JX c #F2D8EA",
"KX c #FEEBE7",
"LX c #FEF4FF",
"PX c #FDF7F9",
"IX c #F7F0F5",
"UX c #DECED2",
/* pixels */
"a.s.x.*X=XH.x.s.s.x.H.,X*XJ.*X^.*XC.^.!.m.m.a.!.$X$Xm.m.!.#X!.n.y.j.z.>X>XM.M.n.s.t.(.#X$XJ.D.G.*XD.}.S.f.S.d.D.D.}.L.f.h.}.L.i.",
"m.H.H.*X^.s.a.a.m.H.H.*X@XH.^.H._.K.^.H.n.z.s.H.z.m.m.m.!.#X(.s.n.J.m.*X$Xt.i.s.H.n.#X>X#X$X}.}.}.J.}.S.f.f.i.S.i.D.D.f.D.-X%Xi.",
"^.H.x.n.x.z.!.=Xn.m.H.*X@XH.^.x.%X X XL.S.h.S.L.s.J.!.n.m.#X(.z.m.H.m.!.H.s.S.^.H.v.).#X(.m.n.f.}.%X*X@XD.n.S.J.d.J.L.h.S.*X@Xf.",
"@X^.J.J.J.H.!.^.m.J.J.*X#XH.n.r.G.G.V.}.}.V.G.}.S.L.J.n.m.!.#X^.*X#XK.H.H.C.L._.x.v.).:X*X$Xn.i.J.L.J.@X}.J.L.L.S.L.L.n.f.S.J.L.",
"*X^.H.n.H.^.J.H.H.@XJ.^.^.x.x.r.}.p.p.G.}.p.u.i.L.f.d.S.L.L.^.%X=X@Xm.z.n.L.L.D.H.^.#X#X(.m.j.y.}.n.f.S.J.h.i.u.L.f.d.S.J.D.J.@X",
"*X^.x.r.s.J.!.J.a.H.x.x.n.n.@X*X Xp.p.V.G.V.0.u._.d.w.K.%XF.p.f.L.m.n.s.n._.F.B.i.H.J.U.U.!.$X&X@Xn.n.n.S.S.u.r.%Xd.u.J.&X@XS.n.",
"H.^.*XJ.H.!.x.t.H.>X@Xm.z.t.n.J.|.h.}.S.D.%Xx.K.~.b.d.K.P.V.p.p.D.J.#XH.m.^.f.g.d.@X^.n.s.y.j.M.J.n.@Xn.S.*Xn.S.L.n.f.J.@X@XS.s.",
"r.H.>X#X^.*X^.!.z.>X=X!.x.r.z.m.@X}.1Xf.u.L.d.b.b.b.Z.K.L.L.}.&Xu.H.<X(.).<X!.K.s.;X,X@Xm.a.z.M.^.L.7Xn.u.^.a.f.u.n.J.S.n.L.@X@X",
"z.t.q.z.^.!.m.(.m.H.m.m.x.m.^.v.M.M.!.J.L.d.b.b.l.<X).U.c.<X:X*Xm.l.e.'.R.`.`.).!.H.m.l.Q.c./.!.x.@X^.L.@Xn.n.s.s.J.^.n.S.@X*X^.",
"m.v.z.m.(.H.m.^.H.#XH.H.#X^.H.z.k.>X@XH.^.L.-Xd.l.U.:X:XeXrXXXI.R.E.E.[.].9XR.Y.:X$Xc./.(.).U.0.x.*Xn.n.J.f.@XS.a.n.J.J.@X*X^.x.",
"!.#X(.!.!.m.m.(.(.*Xm.Q.*X#X!.v.<XfXs.s.D.w.-X^.U.rXT.: @ < & < < , , , , , & @ oXoXl $X!.;XF.p.H.,Xn.x.J.x.,XJ.@X@X^.^.@X@XJ.n.",
"(.*X#X!.!.U.Q.#XQ.m.m.#X(.(.#Xv.q.(.a.0.p.0.L.t.Y.XX8X< 0 b s v p p p p p s 9 0 qXqXoX:X:X#XS.F.u.^.s.r.f.u.n.0.H.H.x.s.a.s.s.a.",
"!.#X!.m.Q.!.!.(.z.m.(.<X#XU.(.m.k.m.H.d.x.a.m.N.I.+ g | #.cXcXcX<.<.cXcXcXaXaXaXd = * @ XXR.`.Q.a.H.H.r.x.x.s.t.x.H.J.H.J.@X@XJ.",
"!.!.m.v.m.m.m.#Xm.#X(.(.!.v.U.#X(.l.H.v.H.c.:XoXqX< c ..@.,.5.2.2.5.5.5.4.4.,.<.T s s 8 yXT.rXU.!.^.*Xn.J.^.!.*Xn.m.n.x.n.!.^.J.",
"!.!.m.m.v.l.z.#X!.#Xm.m.m.z.m.#XZ.~.<XW.U.E.T.: x | #.<.5.7.=.:.7.6.6.*.=.=.=.,.<.cX#./ 8 + oX2XJ.J.^.n.J.n.H.=X=X*X@X^.J.^.@X*X",
"(.(.!.m.z.q.t.#Xt.l.v.#X!.x.m.z.~.~.!.)./.R.0X+ x ..@.,.2.:.9.7.*.3.*.:.:.;.;.6.<.jXO.#.x & 9XN.U.^.^.^.^.s.H.@Xn.H.#X=X^.m.m.^.",
"!.1X*Xr.^.x.x.>Xz.x.v.z.s.H.J.z.m.*Xd.S.v.eXT.o c bXbX2.2.3.7.=.:.:.:.*.;.;.-.-.5.8.<.cXY $ T.R.(.@Xx.H.^.n.H.a.a.J.x.H.H.s.s.^.",
"z.^.*Xn.@XS.S.^.^.#X(.m.z.H.@X^.H.s.u.~.v.E.0Xg #.<.2.2.2.3.7.=.*.*.*.=.=.-.-.-.=.2.8.8.` 9 0X].c.x.a.H.m.z.H.s.x.H.a.H.J.H.s.n.",
"t.z.^.L.@XL.L.H.H.^.(.m.s.x.J.*XS.L.K.<XR.O z GXmX1.>.5.7.7.7.7.3.3.3.6.;.-.-.;.7.=.2.8.@./ z . Y.H.H.@XH.x.^.n.@X^.n.J.^.^.n.x.",
"z.z.n.S.J.J.^.L.x.J.!.m.a.0.a.L.L.z.).eXiX1 D NXvXmXaX,.2.*.=.:.3.3.3.6.-.-.-.;.3.=.7.8.{ ( y + :X^.^.&X^.H.&XL.=X*XL.^.n.S.n.n.",
"m.m.z.s.n.S.S.@X^.@X(.!.x.0.r.^.-X`.'.> 1 z H B lXKXBX>.6.3.*.7.2.2.2.-.-.-.-.=.:.3.7.2.&.o.A , :XS.f.L.L.L.&X@XS.S.J.L.a.s.s.s.",
"H.!.z.f.n.S.s.J.n.m.Q.^.!.x.n.*X<XR.].K tXlXgXS lXIXBX` %.6.*.6.5.5.5.5.5.4.4.4.=.=.$.$.$.o.B o eXD.s.S.L.L.L.L.u.s.J.@Xn.J.n.d.",
"H.J.x.H.f.n.s.H.a.a.v.!.@X@X@X#XeX. K IXPXLXDXy lXKXmXT &.4.-.4.5.5.5.5.5.5.5.5.6.7.%.$.R ( i < :X@XS.D.%XD.h.L.f.h.L.%XL.&XL.S.",
"^.H.x.L.a.f.f.H.J.m.m.H.!.*X*X/.].O {.PXJXLXDXX.lXBXcXL ` ,.&.%.%.%.%.%.>.>.>.>.%.$.$.E ` @.i & Y.L.S.D.&XS.f.%XD.D.D.D.n.%XL.D.",
"m.J.H.*XL.n.J.a.x.!.!.z.z.H.J.U.m : J LXIXLXJXBXvX^ ( ` R R R ' E E E _ _ _ _ _ R E E R ` o.A & I.h.s.f.D.h.f.*XD.S.L.J.n.L.%XD.",
"m.H.H.^.J.S.L.f.n.!.(.!.m.n.s.k.[.. Z IXJXLXUXhXo.( ] { ) ' ' R E E _ _ _ } } _ _ _ ' E ` [ p $ N.f.h.S.L.D.f.D.%XL.S.f.n.%X%Xf.",
"H.!.!.^.J.L.&XJ.r.x.!.#X^.H.s.k.m . Z DXJXLXlX$ ^ O.$.R ) ' { } E E _ _ _ } } } { ` ` ` [ ( p * I.S.D.J.L.L.n.s.%XL.D.n.S.@XL.u.",
"!.!.!.H.n.L.*XJ.r.a.m.^.^.J.S.!.eX[.tXF kXLXDXX.[ ^ ) ) ) ) ] { ) ) ) ] { ] ] ] { ) ` [ ( ( i * Y.S.H.S.J.L.J.d.J.L.@X}.S.f.f.f.",
"H.m.H.n.s.S.L.S.!.m.m.H.H.n.H.(.e.R.m @ Z NXUXJXvXe ^ 1.[ [ o.[ [ [ [ o.o.o.o.o.[ o.@.o.a q e 6 I.s.n.S.J.*X*XS.^.L.@X*XH.r.a.L.",
"#XH.^.J.S.L.J.J.@XJ.m.(.^.J.H.H.k.c.R.m tX+.+.gXX.i V V a ( a a / A A A A A V V A a ( A p e w * N.r.s.J.@X-X-X^.@XJ.H.@X@Xx.a.H.",
"*Xm.@X*XL.L.J.^.@X!.!.#X=X*XJ.n.q.q.U.eX[.+ ; 2 2 t u ; - e 5 7 w w w w w w q q e 5 - e A / y o I.a.z.J.^.#X*X@XJ.J.m.!.=X@Xn.x.",
"!.t.H.^.H.S.s.H.,X#X!.!.#X=X^.n.#XK.0.Y.9X, t N Z 2 3 H S y y 7 y y y y y y p p p A A y r D  .qX:Xn.f.n.n.H.L.@XS.^.H.n.@X=X!.n.",
"z.a.s.*X=Xn.x.m.a.r.^.*X#X!.^.^._.~.K.(.oXh n y 3   t NX+.y p q a / 0 5 x W Q c Y / b +.r & qXOX=XV.}.F.f.S.f.S.J.@XJ.f.n.@X^.x.",
"n.n.J.=X@Xs.r.a.J.n.*X=X*X^.^.^.*XK.K.1XOX< n lXS   z FXzX+.( 5 v yX..Q U 0 j U b b x n * + :X|.}.V. XD.p.f.f.h.i.S.S.f.J.,X*Xx.",
"J.J.H.H.x.s.J.*Xx.s.J.^.@XJ.H.f.}.%XL.$XN.< b ZXD   Z PXZXmX .% ..MXMXMXQ 5 j Y v / x 1 @ O I.J. X}.%X XS.h.D.D.s.J.J.n.H.*X@Xf.",
"@X*X^.H.n.H.^.^.H.m.@X@X*XH.x.r.@X}.V.J.2XI.uXFXNX+.kXKXZXAXnXY yXaXnXVXW % c v / / 8 < 8XT.U.r.L.D.D.%XL.D.L.L.S.J.J.S.n.H.J.J.",
"#X#XJ.x.x.^.^.J.H.J.@X!.^.n.x.r.}.r.p.D.|.OXMXHXGXPXFXFXZXHXAXsXnXnXsXVX..5 v  .+.D 6 + T.oXz.q.}.f.f.D.D.f.f.u.J.f.f.H.L.J.J.@X",
"@XJ.n.t.s.^.^.H.s.H.J.n.J.H.#X=X%Xr. XG.y.OXuX8XyXGXFXFXZXMXnXpXaXMX..Y Y s 9 7 7 6 qXm :X(.,X%X%Xf.n.S.S.S.i.r.@Xs.u.J.=X@Xn.x.",
"H.!.@X!.!.^.x.r.n.#X@Xz.s.q.z.n.L.p.G.p.D.1XXX+ tXZXGXGXAXmXaXsXVXMXY = x  .7 o o   0XR.l.k Z.Z.L.f.%XS.n.*XH.S.^.n.x.J.@X^.n.s.",
"x.m.#X@X@X*X^.!.x.>X,X^.H.t.x.H.S. X7Xp.d.s.Y.I.uXyX#.#. ./ ..MXwXU x 9 9 r g | 0 + rXR.Q.0.Z.Z.^.L.7Xn.r.L.s.s.s.S.J.n.n.J.@X@X",
"x.t.q.a.^.!.m.^.x.m.x.m.z.x.#Xm.b.L.F.F.L.n.U.I.8X* 7 p i 5 +.AXU % 6 6 6 6 P sXl + I.R.l.d._.b.a.L.J.S.^.n.S.r.s.L.@Xn.n.*X&XL.",
"m.x.z.m.(.!.m.!.^.*Xm.H.#X!.m.t.b.*XH.S.L.s.(.Y.m qX#.e ( lXxXNXyXW W j P ! +X5X+XI XXk #X~.b.z.H.,X^.H.L.x.*XH.s.n.J.J.@X*XL.f.",
"!.(.(.!.(.Q.m.!.(.#Xm.U.*X#X!.z.K.7XH.n.J.x.,X/.oXyX .5 #.JXJXCXmXsXwXj +X5X4X4X5XdXl : 2X-Xn.J.H.,Xm.x.J.s.*XH.@XL.J.L.@X@XL.S.",
"(.#X(.!.!.!.Q.(.v.m.m.#X(.(.#Xm.a.^.a.r.z.s.~.k.9Xh | D B B Z J n n 0 $ I 5X4X4X4X! < X OX$X=XJ.z.!.a.a.m.a.H.a.J.H.f.a.u.u.u.u.",
"(.#XU.v.U.!.!.(.z.m.#X1X#Xm.!.z.w.b.n.r.n.x.b.k.T.+ n +.u o   u 1 8 < o U pX5X6XI P * + R.m.#Xz.z.x.x.t.n.x.s.a.s.S.S.n.S.@X@XL.",
"(.!.v.z.m.m.Q.#XQ.#X(.(.(.v.Q.(.K.~.*Xn.H.L.K.:X].: 1 3 S xXlXzXF z ,   9 Q I P ! wX8 X eXU.!.J.Q.Q.#Xx.m.m.n.@Xn.J.S.s.f.L.L.S.",
"(.!.m.v.v.l.z.#XQ.(.v.m.m.v.!.<X~.~.^.x.S.f.Z.eX].f 4   H KXHXHXkX3 #   w b P j +XsX8 . eXm.J.*X!.#X#XH.!.m.!.>X&X*X@XJ.J.L.%X&X",
"(.(.!.H.x.q.t.^.z.z.m.#XH.z.H.z.W.~.~.~.%Xf.H.`.].: @   Z CXNXZXJ 4 M M 2 ; Y pXQ qX< . Y.t.n.n.m.(.^.!.^.x.!.@XH.J.@X&X@Xn.n.^.",
"!.,X^.r.@Xx.x.,Xs.H.m.a.z.H.m.s.K.!.z.H.^.m.H.k.'.> : . D CXNXNXJ 4 C N # o F SX| h , . k.!.^.r.^.#Xx.H.!.n.J.a.a.J.x.J.x.r.n.@X",
"x.^.@Xn.*XS.n.^.H.#X(.m.n.H.J.L.d.x.t.n.n.z.J.v.c.E.m , 1 r e - N G G G M X + 1 @ : 9XE.c.n.L.^.s.n.a.m.m.z.H.s.x.H.r.H.J.n.H.x.",
"a.z.^.^.@XD.J.H.m.^.!.m.x.x.H.&XC.S.S.@XS.f.L.H.<XeX].1 * o $ $ 2 gXH J Z   + . . O 9X:Xz.d.L.*Xn.H.H.%XH.x.L.x.*X@Xs.L.^.J.J.s.",
"z.z.H.S.S.S.L.^.m.!.!.m.z.r.s.*XL.G.L.-X XD.%XD.(.:X9X+ * D A B B +.H H ; + iX9XT.R.`.m.L.0.f.L.@XL.^.=X^.H.*XJ.-X&XJ.@Xn.n.H.f.",
"x.m.x.s.n.S.J.*X^.#X#X^.x.0.a.L.L.V.f.}. XG..XF.C./.I.. <  .#.( +.+.S y & @ 9XeX:XrX/.z.S.q.u.%XL.n.f.L.L.L.*XL.S.L.H.L.s.u.s.u.",
"x.!.x.f.n.S.x.^.n.n.Q.!.n.s.n.J.&XD.p.V.G.V.G.P.g.Q.Y.9X8X& = % % = o * F T.I.:XY.z.>XJ.f.f.i.@X@XS.s.S.L.J.L.L.u.h.n.}.J.J.S.u.",
"H.!.x.S.f.S.f.n.s.r.z.H.H.L.*XL.=X&Xh.V.}.V.B.P.g.~./.rXT.X o         + T.oXy.M.m.k J.H.D.-X#X#X*X%XS.D.%XD.n.}.i.D.D.}.%X&XL.S.",
"^.!.n.J.u.n.f.x.@Xn.m.^.^.=X,X@Xn.}.n.D.&XV.p.P.B.A.(.c.:XR.rX9X9XoXrXT.I.k.j.M.z.$Xn.H.@XJ.#X$Xn.L.S.D.&XS.f.&Xf.L.D.D.D.L.L.L.",
"m.m.J.@XL.D.J.s.m.!.!.z.s.H.J.x.r.S.f.i.D.V.f. XF.K.A.K.Q.(./.Y.Y.Y.:X:X(.M.n.s.M.!.J.j.s.m.Y.c.s.S.f.f.D.f.f.%XS.L.D.L.S.L.L.L.",
"m.H.^.@XS.n.J.x.n.!.#X!.H.n.s.0.r.n.n.h.L.D.h.S.%X_.C.C.A.;X(.v.Q.Z.Q.!.K.H.J.s.n.!.$XJ.M.M.z.r.r.f.f.S.L.D.h.J.}.}.h.f.S.&XL.f.",
"(.!.J.L.J.}.*XS.r.x.!.#X^.H.s.u.d.C.F.D.D.L.S.i._._.F.A.A._.A.w.K.~.~.~.K.~.*XH.t.x.J.@X}.M.z.y.i.n.S.D.L.L.S.f.}.@XS.S.S.%XS.u.",
"!.H.H.S.S.@X&XJ.t.a.v.!.^.J.H.L.C.C.F.F.V.L.L.d.H.^._._.B.d.w.b.K.~.~.K.x.K.*X^.a.a.x.H.J.H.J.@XH.D.J.D.J.L.J.i.J.@X@X%XS.n.s.f.",
"x.m.^.S.s.h.L.^.H.x.m.!.!.S.H.L.f.g.B.F.F.%X&XS.J.L.^.&Xf.0.0.~.Q.W.~.Z.l.H.!.H.~.v.x.S.D.n.H.@Xx.f.n.S.J.*X*Xn.^.L.^.&Xn.u.u.J.",
"#XJ.^.L.S.J.J.H.@XJ.m.(.@XJ.H.S.u.0.g.D.P.&X-X@X@XJ.D.;XL.x.d.~.`.Q.!.!.H.!.(.!.#X!.H.J.^.J.H.H.0.0.s.J.@X,X,X@X@XH.H.&X^.n.s.H.",
",XH.J.@X@X@XJ.S.*X!.!.^.*X*XJ.n.z.r.s.D.}.}.@X%XL.D.S.%X&X*Xm.z.<XU.).#X#X#X(./.:X(.J.@X*X#X!.m.s.r.s.J.^.*X=X*XJ.H.n.@X*X*Xn.z.",
"m.t.H.@XS.f.f.L.,X*X(.^.*X*XJ.n.#XM.f.h.D.h.S.*XS.D.h.V.L.=X!.l.U.k.U.(.!.m.v.!.1X:X!.@X=X=X).c.#XH.x.H.m.m.J.^.H.J.H.J.^.>X^.x."
};
