/* XPM */
static char *_d13eaad395b4db5e9236a63387ff3d1QwCNIf0WpSBhIVSC[] = {
/* columns rows colors chars-per-pixel */
"64 64 256 2 ",
"   c #0D0200",
".  c #020A00",
"X  c #070700",
"o  c #170700",
"O  c #071900",
"+  c #1B1C01",
"@  c #181601",
"#  c #110E17",
"$  c #270701",
"%  c #370C00",
"&  c #291901",
"*  c #391704",
"=  c #321518",
"-  c #1D2200",
";  c #112100",
":  c #1F221B",
">  c #2A2601",
",  c #372601",
"<  c #2F2C13",
"1  c #321A2A",
"2  c #312C2F",
"3  c #1C1E2D",
"4  c #471A04",
"5  c #471C1B",
"6  c #482604",
"7  c #48360A",
"8  c #462719",
"9  c #573718",
"0  c #512F11",
"q  c #613114",
"w  c #491F29",
"e  c #492826",
"r  c #442B31",
"t  c #563837",
"y  c #51342A",
"u  c #683927",
"i  c #663639",
"p  c #6F352E",
"a  c #4E4410",
"s  c #67451B",
"d  c #754D11",
"f  c #537A00",
"g  c #57720C",
"h  c #687110",
"j  c #5A462A",
"k  c #694225",
"l  c #7D4A2D",
"z  c #7C5626",
"x  c #694739",
"c  c #784637",
"v  c #6E5731",
"b  c #747032",
"n  c #52623B",
"m  c #4F3746",
"M  c #793B44",
"N  c #6D3D49",
"B  c #3D4053",
"V  c #574847",
"C  c #54504A",
"Z  c #774548",
"A  c #675759",
"S  c #705250",
"D  c #746B4D",
"F  c #4F5068",
"G  c #70546A",
"H  c #766C6F",
"J  c #9A3C2F",
"K  c #895800",
"L  c #96710D",
"P  c #885939",
"I  c #864D33",
"U  c #AC493C",
"Y  c #B34B3B",
"T  c #B7513C",
"R  c #AD523F",
"E  c #8E6E32",
"W  c #A17125",
"Q  c #C8533F",
"!  c #943E4B",
"~  c #874846",
"^  c #875844",
"/  c #985351",
"(  c #B34C43",
")  c #B44848",
"_  c #A9584B",
"`  c #B55348",
"'  c #B54D55",
"]  c #A75957",
"[  c #B65656",
"{  c #AA4B4C",
"}  c #936848",
"|  c #996655",
" . c #8E744F",
".. c #AD6A55",
"X. c #A85C63",
"o. c #BF5C65",
"O. c #8F6B6B",
"+. c #AE6862",
"@. c #B66668",
"#. c #A97864",
"$. c #B17171",
"%. c #CD655C",
"&. c #D66B53",
"*. c #E56D5B",
"=. c #EC6C5D",
"-. c #E66D56",
";. c #EA735B",
":. c #E67359",
">. c #EA6E54",
",. c #D86863",
"<. c #DA7168",
"1. c #DA7977",
"2. c #C86E6B",
"3. c #E26E65",
"4. c #EC6D62",
"5. c #E16B6A",
"6. c #EC7364",
"7. c #E67468",
"8. c #F27464",
"9. c #F27669",
"0. c #E47773",
"q. c #EE7471",
"w. c #CD5649",
"e. c #5D8A01",
"r. c #5A8604",
"t. c #5C8F0D",
"y. c #618D04",
"u. c #638D0A",
"i. c #688C0B",
"p. c #649204",
"a. c #699505",
"s. c #65920B",
"d. c #6A950C",
"f. c #6D9A0C",
"g. c #6B9B05",
"h. c #719D0E",
"j. c #729E03",
"k. c #668B17",
"l. c #659312",
"z. c #6B9513",
"x. c #6E9A13",
"c. c #6D951B",
"v. c #6E9A1A",
"b. c #669915",
"n. c #729D14",
"m. c #739D1B",
"M. c #7A9D1B",
"N. c #759718",
"B. c #6CA10D",
"V. c #73A30D",
"C. c #6DA217",
"Z. c #75A214",
"A. c #79A515",
"S. c #7BAA15",
"D. c #75A21B",
"F. c #7AA51C",
"G. c #76AA1C",
"H. c #7CAA1C",
"J. c #75AB15",
"K. c #7FB21D",
"L. c #6A8927",
"P. c #74852A",
"I. c #6D9623",
"U. c #749C22",
"Y. c #7A9D23",
"T. c #77982A",
"R. c #788935",
"E. c #7B9735",
"W. c #6E8832",
"Q. c #75A122",
"!. c #7BA523",
"~. c #7EAA23",
"^. c #7BA42A",
"/. c #7DAA2A",
"(. c #75A826",
"). c #7EB225",
"_. c #7DA831",
"`. c #69A122",
"'. c #788C45",
"]. c #A78417",
"[. c #82AD1D",
"{. c #81A71B",
"}. c #84B21D",
"|. c #82893C",
" X c #84993A",
".X c #879228",
"XX c #AE8634",
"oX c #81AD24",
"OX c #82AC2B",
"+X c #84A627",
"@X c #85B224",
"#X c #85B22A",
"$X c #8AB52C",
"%X c #8AB729",
"&X c #84AD31",
"*X c #87A839",
"=X c #85B233",
"-X c #8BB532",
";X c #8EB932",
":X c #8AB837",
">X c #92BC36",
",X c #92AB33",
"<X c #AA9322",
"1X c #CBA319",
"2X c #CAA627",
"3X c #C79D24",
"4X c #95C537",
"5X c #889745",
"6X c #8C8F4F",
"7X c #B28B55",
"8X c #8AA745",
"9X c #96A555",
"0X c #93AF49",
"qX c #B38E6A",
"wX c #9EA869",
"eX c #D0AF48",
"rX c #D1917A",
"tX c #E98270",
"yX c #DAAD7F",
"uX c #D4AB76",
"iX c #9CC15A",
"pX c #CFC577",
"aX c #786E83",
"sX c #8E778A",
"dX c #B27B90",
"fX c #CA7D86",
"gX c #E57C84",
"hX c #B39091",
"jX c #BBA492",
"kX c #A996A6",
"lX c #BBA9AF",
"zX c #9B9D85",
"xX c #CF9291",
"cX c #E58E89",
"vX c #D7AB8C",
"bX c #E5B48E",
"nX c #C791A6",
"mX c #D0B1AE",
"MX c #ECB4AC",
"NX c #E99EA2",
"BX c #D9C9AF",
"VX c #FAC9A9",
"CX c #F1C9B5",
"ZX c #D0C38C",
"AX c #DDBDCD",
"SX c #DCC6D3",
"DX c #F8DBD5",
"FX c #ECCECD",
"GX c #FFE4CB",
"HX c #FEE4D7",
"JX c #FFF0D2",
"KX c #F0D5E9",
"LX c #FBE9FB",
"PX c #FFF9FB",
"IX c #F8EBEC",
"UX c #DDC6E3",
/* pixels */
"s.d.x.#X$XD.x.d.d.x.D.;X#XF.#X~.#Xm.H.A.V.V.p.A.H.F.D.D.!.OX^.m.u.d.N.$X,XN.N.n.d.y.F.@XH.S.A.S.@XA.[.Z.f.Z.g.A.A.[.H.f.n.[.H.a.",
"m.D.D.#X~.d.s.s.m.D.D.#XoXD.~.D.OXF.oXA.j.g.a.Z.d.n.D.m.!.OX/.z.m.!.M.OX+Xi.i.d.D.x.~.@X[.[.[.[.[.H.[.Z.f.f.a.Z.a.A.A.f.A.%X@Xa.",
"~.D.x.n.x.z.!.$Xn.m.D.#XoXD.~.x.OXOXOXoXA.h.Z.{.d.A.H.n.m.~.!.z.U.Q.U./.U.z.Y.OXm.n.F.oXH.A.h.d.oX@X#XoXA.n.Z.A.g.A.H.n.Z.#XoXf.",
"oX~.F.F.F.D.!.~.m.F.F.#XOXD.n.y.oXH.A.[.[.A.H.[.A.H.F.n.n.!.~.!.=X_.Q.Q.U.U./.&Xm.m.!.OXoX{.n.a.H.H.A.oXoXA.H.H.Z.H.H.n.f.Z.A.H.",
"#X~.D.n.D.~.F.D.D.oXF.~.~.x.x.y.[.j.a.S.{.g.p.a.H.n.d.D.~.~.~.#X:X/.D.b.v.^.^.^.^./.OXoX~.n.d.u.~.n.f.Z.A.h.a.p.H.f.g.Z.A.A.A.oX",
"#X~.x.y.d.F.!.F.s.D.x.x.n.n.oX#X}.j.j.V.S.V.y.p.[.a.p.A.#XG.f.x.~.D.C.s.v./.Q.U.z.!.!.m.D.F./.$XoXn.n.n.Z.Z.p.y.@Xg.p.A.%XoXZ.n.",
"D.~.#XF.D.!.x.u.D.-XoXm.z.u.n.F.H.h.[.Z.A.}.j.V.S.f.g.S.}.V.g.g.J.G.).C.C.!.x.s.c.OX~.m.l.t.l.v.F.n.oXn.Z.#Xn.Z.H.n.f.A.oXoXZ.d.",
"y.D.-XOX~.#X~.!.z.-X$X!.x.y.z.D.oXoX>Xf.p.S.a.f.g.f.Z.F.H.S.K.@Xp.C.:X/.(.=X!.F.d.$X;XOXm.l.b.m.~.H.4Xn.p.~.s.f.p.n.A.Z.n.H.oXoX",
"z.u.r.z.~.!.m./.m.D.m.m.x.m.~.x.m.!.H.H.H.Z.f.Z.z./.OXU.U.&X>XOXc.I.k.k.^._.Q.F.A.Z.n.s.v.m./.!.x.oX~.H.oXn.n.a.d.F.~.n.Z.oX#X~.",
"m.v.z.m./.D.m.~.D.OXm.D.OX~.D.z.u.#X~.a.n.~.OXc.I.E.8XE.5X9XR.P.R.'.W.'.5XL.T.D.F.F.n.F.OX!.N.i.n.#Xn.n.F.f.oXZ.s.n.F.F.oX#X~.x.",
"!.OX/.!.!.m.m././.=Xm.U.OXOX!.x.).;Xf.s.!.z.*X8XR.+ > , & , * , & , @ > + - L.0X!.#Xs.!.$X$X+XM.D.>Xn.x.F.x.;XF.oXoX~.~.oXoXF.n.",
"/.=XOX!.!.U.Q.OXQ.m.m.OX/./.OXx.t.(.s.l.T.h  X|.6X7 0 c p p p p u c u c 9 7 |. XI.OXs.).#XOX+XN.d.~.d.y.f.p.n.e.D.D.x.d.s.d.d.s.",
"!.OX!.m.Q.!.!./.z.m./.-XOXQ./.v.t.`.I.k.b - & % P xXrXrXcXcX1.1.tX1.cXcX$.^ s o R.8X(.=X~.~.oXM.d.D.m.y.x.x.d.u.x.D.F.D.F.oXoXF.",
"!.!.m.c.m.m.m.OXm.OX/./.!.c.U.OXQ.I.8XR.6X7 0 p I cX<.%.0.<.7.5.q.<.0.<.2.+.c * 6XR.8X_.Q.l.!.F.F.~.#Xn.F.~.!.#Xn.m.n.x.n.!.~.F.",
"!.!.m.m.v.l.z.OX!.OXm.m.m.z.m.&XQ.T. X+ 9 ^ $.cX1.0.,.9.9.*.6.-.;.-.8.7.5.gX1.#.9 - W.U./.b.~.~.D.F.~.n.F.n.D.$X$X#XoX~.F.~.oX#X",
"/./.!.m.z.r.u.OXu.u.c.OX!.x.m.z.!.T.9X@ u @.2.1.<.5.4.8.=.=.=.8.>.>.;.8.3.,.o.X.x @ 5XE.&Xs.m.D.D.~.~.~.~.d.D.oXn.D.OX$X~.m.m.~.",
"!.>X#Xy.~.x.x.-Xz.x.v.z.d.D.F.z.b.0Xb $ l cX<.7.3.3.*.=.=.4.4.=.>.>.;.4.4.q.gXcXZ o '.E.D.f.G.b.F.oXx.D.~.n.D.s.s.F.x.D.D.z.d.~.",
"z.~.#Xn.oXZ.Z.~.~.OX/.m.z.D.oX~.I.L.b q ~ tX<.*.:.;.6.6.6.6.8.4.;.:.8.9.9.q.0.fXO.y wXL.r.F.%XG.s.x.s.D.m.z.D.d.x.D.s.D.!.D.d.n.",
"u.z.~.H.oXH.H.D.D.~./.m.d.x.F.OXL.> k | [ 0.6.&.-.-.*.*.=.4.4.4.-.;.;.6.4.,.2.@.MXFXS O E.I.C.).Z.D.D.oXD.x.~.n.oX~.n.F.~.~.n.x.",
"z.z.n.Z.A.A.~.H.x.F.!.m.s.e.s.+X5X@ 9 +.[ 5.9.=.;.;.6.6.6.6.7.6.6.8.=.8.6.<.cXNXnXmXA < '.W.Q.@X#X~.~.%X~.D.%XH.$X#XH.~.n.Z.n.n.",
"m.m.z.d.n.Z.Z.oX~.oX/.!.x.e.u.+X9X& u ] ' 5.8.8.-.-.*.3.3.3.3.3.6.4.>.8.:.2.MXIXdXG G C ; O g OXoXZ.f.H.H.H.%XoXZ.Z.A.H.s.a.a.a.",
"D.!.z.f.n.Z.d.F.n.m.Q.~.!.x.n.*X5X, u X.[ 5.*.>.-.*.3.3.3.<.<.<.6.6.-.:.w._ MXLXnXG H kXH n '. XOXA.a.Z.H.H.H.H.p.a.A.oXn.A.n.g.",
"D.F.x.D.f.n.a.D.s.s.v.!.oXoXoX&X9X, u ] { w.w.-.6.7.7.0.0.0.0.0.q.9.:.tX` I xXLXnXm AXPXPXIXC . *XoXZ.A.#XA.h.H.f.h.H.@XH.%XH.Z.",
"~.D.x.H.s.f.f.D.F.m.m.D.!.#X#X^.5Xo 9 +.{ Y Q -.&.%.,.,.,.%.%.%.%.<.&.:.` J fXFXhXG SXLXLXPXH - T.H.Z.A.%XZ.f.@XA.A.A.A.n.@XH.A.",
"m.F.D.#XH.n.A.s.x.!.!.z.z.D.F.N.R.& u +.[ Y Y T J Y ) ) ( ( ( Y ( ( T Y U { ! M hXFXKXPXLXLXaXO L.h.a.f.A.h.f.#XA.Z.H.A.n.H.@XA.",
"m.D.D.~.A.Z.H.f.n.!./.!.m.n.d.u.P.> k / { ( T Y Y ` ' ) ) ( ` T U U U Y ` [ ' / dXO.SXLXKXLXG + L.f.h.Z.H.A.f.A.@XH.Z.f.n.@X@Xf.",
"D.!.!.~.A.H.%XF.y.x.!.OX~.D.d.i.P.& k | ] [ U ` ` [ ' ) ) ( T T ( ` ` ) ) ' o.@.i = kXPXUXSXC . I.Z.A.A.H.H.n.a.@XH.A.n.Z.oXH.p.",
"!.!.!.D.n.H.#XF.y.s.m.~.~.A.Z.Y.R.> k ~ / +._ [ _ ] ' ' { ` R R [ [ ' { ' ' { ~ / O.lXLXkXH zX'.T.Z.D.Z.A.H.F.g.F.H.oX[.Z.f.f.f.",
"D.m.D.n.d.Z.H.Z.!.m.m.D.D.n.Z.+XR.> 0 5 p +.+.] ] ] X.X.X.] _ _ [ ] / X.@.@.~ 5 nXKXUXAXC . 6X8Xv.d.n.Z.F.#X#XZ.~.H.oX#XD.y.s.H.",
"OXD.~.F.Z.H.A.F.OXF.m./.~.F.Z.Y.P.& 8 i Z ~ p c i M Z Z Z c c c I ~ M M M Z i y G sXsXH 6Xb *XY.u.y.d.F.oX;X;X~.oXA.D.oXoXx.s.D.",
"#Xm.oX#XH.H.A.~.oX!.!.OX$X#XF.m.h > y S Z y * 8 8 e r r w 5 5 e 8 e e 5 = 1 r r m 1 # X 9XiXQ.y.d.s.z.F.~.OX#XOXF.F.m.!.$XoXn.x.",
"!.u.D.~.D.Z.a.D.;XOX!.!.OX$X~.m.0X5X6Xx y Z Z y x x V x t y t x y e e t A A m 1 m V t > 9X&XG.).H.n.f.n.n.D.H.oXZ.~.D.n.oX$X!.n.",
"z.s.d.#X$Xn.x.m.s.y.~.#XOX!.~.!.&XT.5X+ j O.^ ^ P l P } u % 0 ^ k 4 i i G lXm   w N x j  X/.@XB.@XV.[.A.g.Z.f.Z.A.oXA.f.n.oX~.x.",
"n.n.F.$XoXd.y.s.F.n.#X$X#X~.~.~.H.-X8XO & v c l I I d q z ..#.qXI % ~ $.nXKXV   S hXc , 0Xx.C.K.}.V.}.A.g.f.f.h.a.Z.Z.f.A.;X#Xx.",
"F.F.D.D.x.d.F.#Xx.d.F.~.oXF.D.f.%XoXU.O @ , x ^ l l s 6 } bXvXVXP % | mXDXPXS   S MX} >  XOXH.p.}.[.@X}.Z.h.A.A.a.A.F.n.D.#XoXf.",
"oX#X~.D.n.D.~.~.D.m.oXoX#XD.x.e.}.f.oXT.b , u ^ ^ P k % P bXrXvX7XP qXCXFXHXjXO.nXDXqXE ,X>Xa.e.H.A.S.@XH.A.H.H.Z.A.F.Z.n.D.F.F.",
"OXOXF.x.x.~.~.F.D.F.oX!.~.n.x.p.S.y.A.+XP.& 9 c | } l 4 } VXbXrXbXyXVXGXCXCXDXHXHXGXZX5X.X{.f d.[.f.f.A.A.f.f.p.A.f.f.D.~.F.A.oX",
"oXF.n.u.d.~.~.D.d.D.F.n.F.D.OX%X}.j.{.M..Xh  .7 0 4 0 k l P } bXuXrXbXMXVXCXCXHXjX .pX XY.+X#XoX@Xf.n.Z.Z.Z.a.y.oXd.p.F.$XoXn.x.",
"D.!.oX!.!.~.x.y.n.OXoXz.d.r.z.m.F.f.J.e.+X0X6X  o o 6 D c * P VXvXyXrXrXVXGXGXJXv + R.P.N.f !.Z.H.f.@XZ.n.#XD.Z.~.n.x.A.oX~.n.d.",
"x.m.OXoXoX#X~.!.x.-X;X~.D.u.x.D.!.D.4Xf.v.E.R.X a b s 9 0 6 s I 7XbX#.^ | #.qX .pX9XiXT.!.e.m.m.oXH.4Xn.y.H.d.a.a.Z.A.n.n.A.oXoX",
"x.u.r.s.~.!.m.~.x.m.x.m.z.x.OXm.v./.G.C.&XT. XX h pXE & 6 6 6 % } CX| 4 u q 9 & 5XE.I.I.v.m./.m.s.H.F.Z.~.n.Z.y.a.H.oXn.n.#X$XH.",
"m.x.z.m.~.!.m.!.~.#Xm.D.OX!.m.u.U.&X~.OX*Xg .X.X].2X].W E s P E #.mXhXxXO.9 qX6X5X*XU.(.&X!.v.l.m.;X~.D.H.x.#XD.d.n.A.A.oX#XH.x.",
"!././.!./.Q.m.!./.OXm.m.=XOX!.c.+X,XM.Y.E.- h eX2X1X1XeXXXd 7XvXmXMXFXDXO.* #.wX5X*Xm.!.:X+XU.v.D.>Xm.x.F.d.#XD.oXH.A.H.oXoXH.Z.",
"/.OX/.!.!.!.Q./.v.m.m.OX/./.OXm.N.+Xi.h P.. , W L 1X1X3XK * 7 b D G V V t S D v E.U.x./.OX^.&XU.c.!.s.s.m.s.D.s.F.D.f.s.p.p.p.p.",
"/.OXU.v.Q.!.!./.z.m.OX>XOXm.!.v.i.N.v.k.'.. , d ].1X2XeXz o & j = e     r O.j @ E.^.!.#X!.U./.v.z.x.x.u.n.x.z.s.d.D.D.n.Z.oXoXH.",
"/.!.v.z.m.m.U.OXU.OX/././.v.Q.OX!.!./.T.E.. 7 7XXXK L XX9   + y O.mXhXlXA 1 < - R.=X~.F.!.m.Q.(.Q.Q.OXx.m.m.n.oXn.F.Z.a.f.H.H.Z.",
"/.!.m.v.v.l.z.OXQ./.v.m.m.v.!.-X_.^.@XQ.E.. a yXW K d P e   : 2 zXHXDXPXA   < < W.^.D.Z.D.v.(./.(.OXOXD.!.m.!.-X%X#XoXF.A.H.@X@X",
"/./.!.D.c.r.u.~.z.z.m.OXD.z.D.v.m./.#Xm.*X. ,  .E 7Xz * 1 2 2 2 O.FXmXBXC o + > W.b.z.G.D.b.D.b.m./.~.!.~.x.!.oXD.A.oX%XoXn.n.~.",
"!.;X~.y.oXx.x.;Xd.D.m.s.z.D.m.d.m./.u.+X X. + v b BXD o # B F 3 O.mXmXSXA . ; O L.v.v.s.l.D.D.d.~.OXx.D.!.n.F.s.s.F.x.F.x.y.n.oX",
"x.!.oXn.#XZ.n.~.D.OX/.m.n.D.F.H.z.F.z.c. XP.5X- - a @ X 2 F F F m e 1 r < < '.E._././.v.z.D.oXoXd.n.s.m.m.z.D.d.x.D.y.D.F.n.D.x.",
"s.z.~.~.oXA.A.D.m.~.!.m.x.x.D.%XA.A.A.F.I.T.5X. . . @ X V aXG sXw $ o o < < 6X*X^.~.~.D.z.f.H.@Xn.D.D.oXD.x.H.x.#XoXd.H.~.F.F.a.",
"z.z.D.Z.Z.Z.H.~.m.!.!.m.z.y.d.#XA.V.V.%X-XU.0XT.0X9X6X. : A G G Z M Z S 8 X 9XE.m.D.G.D.p.e.a.{.oXH.~.$X~.D.#XA.;X%XF.oXn.n.D.f.",
"x.m.x.d.n.Z.A.#X~.oXOX~.x.e.s.H.S.S.p.B.).D./.=XI.E.R.O > r A O.O.| O.^ 7 X  XU.!.G.H.G.a.e.a.S.[.n.f.H.H.H.#XH.Z.H.D.H.a.p.d.p.",
"x.!.x.f.n.Z.x.~.n.n.Q.!.m.d.n.A.@XS.p.B.J.G.K.~.l.U.*X5XD + @ * % % % & D R.I.-Xx.B.D.G.Z.f.h.{.oXZ.a.Z.H.A.H.H.p.n.n.[.A.A.Z.p.",
"D.!.x.Z.f.Z.f.n.d.y.z.D.D.H.#XH.oXH.Z.K.S.B.f.H.f.x.Y.*XR.O . X o o   X |.0Xf !.p.p.b.G.~.~.[.[.@X@XZ.A.@XA.n.[.a.A.A.oX@X%XH.Z.",
"~.!.n.A.p.n.f.x.oXn.m.~.~.$X>X~.x.H.x.Z.@XH.p.S.g.H.!.Y.*XE.8XE.5X5X5X5XL.c.z.B.G.C.C.(./.$X@XH.Z.H.Z.A.@XZ.f.%Xf.H.A.A.A.H.H.H.",
"m.m.F.oXH.A.A.d.m.!.!.z.d.D.A.x.s.D.x.s.D.n.f.}.A.S.Z.D.m.&XT.T.E.E.*X*X^.v.C.s.C.(.Q.b.b.Q.F.f.g.Z.f.f.A.f.f.@XZ.H.A.H.Z.H.H.H.",
"m.D.~.oXD.n.A.x.n.!.OX!.D.n.a.e.y.Z.m.n.!.F.h.Z.@X}.V.n.D.$X/.v.U.U.Q./.Q.F.G.d.x.(./.(.Q.v.s.e.y.f.f.Z.H.A.h.A.[.[.h.f.Z.@XH.f.",
"/.!.F.H.A.[.#XD.y.x.!.OX~.D.d.p.a.Z.F.F.!.~.Z.a.oX#XA.A.D.#XQ.l.!.!.!./.F.oX#XD.u.c.^._./.D.b.p.p.n.Z.A.H.H.Z.f.oXoXZ.Z.Z.@XZ.p.",
"!.D.D.Z.Z.oX%XF.u.s.v.!.~.A.D.H.Z.n.F.F.D.~.~.d.D.oXoXoXh.d.i.c.Q.!.~.F.n.{.#X+Xi.u.N.!.^.Q.F.H.Z.A.A.A.A.H.A.a.A.oXoX@XZ.n.a.f.",
"x.m.~.Z.a.h.H.~.D.x.m.!.!.Z.D.H.f.p.x.F.F.#X$XZ.F.~.oX$Xn.y.u.!.m.m.!.m.d.M.{.M.F.N.N.Y.!.m.D.~.x.f.n.Z.F.#X#Xn.~.H.~.%Xn.p.p.F.",
"OXF.~.H.Z.A.A.D.oXF.m./.oXF.D.Z.p.e.s.!.~.$X;XoXoXH.A.$XoXN.z.!.OXQ.!.!.D.{.+XF.OXF.M./.OX!.U.U.e.e.d.A.oX;X;XoXoXD.D.%X~.n.a.D.",
";XD.F.oXoXoXA.Z.#X!.!.~.#X#XH.Z.g.p.s.F.oXoXoX#XoXF.n.oX@X#Xm.z.&Xm.!.OXoX~.H.~.oX!.!.OX=X&X^.U.z.y.d.F.~.#X$X#XF.D.n.oX#X#Xn.z.",
"m.u.D.oXZ.f.f.H.;X#X/.~.#X#XH.f.H.B.d.m.F.n.A.@XM.F.n.A.H.$X!.z.U.s.m.~.D.x.f.A.;XOX/.OX,X*X^.c.OXD.x.D.m.m.F.~.D.F.D.F.~.-X~.x."
};
