/* XPM */
static char *_3e2f01e26314cf0e7b552db3e1a90681o3pmaoy0FnbeCeC[] = {
/* columns rows colors chars-per-pixel */
"64 65 250 2 ",
"   c #030203",
".  c #0C0101",
"X  c #010A03",
"o  c #02040A",
"O  c #0B030C",
"+  c #070B08",
"@  c #140302",
"#  c #160607",
"$  c #1C0102",
"%  c #020314",
"&  c #0B0313",
"*  c #0B0D10",
"=  c #070818",
"-  c #240203",
";  c #29121B",
":  c #373116",
">  c #070621",
",  c #3F1F22",
"<  c #3B272A",
"1  c #2C302E",
"2  c #39362A",
"3  c #382D38",
"4  c #3B3333",
"5  c #383739",
"6  c #48191B",
"7  c #492B17",
"8  c #57241C",
"9  c #463017",
"0  c #70221E",
"q  c #472A29",
"w  c #542B28",
"e  c #46352A",
"r  c #4E2D32",
"t  c #473537",
"y  c #563537",
"u  c #672927",
"i  c #683638",
"p  c #753331",
"a  c #3A4B17",
"s  c #374631",
"d  c #45481D",
"f  c #504533",
"g  c #67463C",
"h  c #735034",
"j  c #343247",
"k  c #473845",
"l  c #50344F",
"z  c #6A3E4B",
"x  c #344A4C",
"c  c #3C4554",
"v  c #3F635F",
"b  c #387070",
"n  c #4D4D4F",
"m  c #584846",
"M  c #684747",
"N  c #774546",
"B  c #6E5647",
"V  c #684D59",
"C  c #774A57",
"Z  c #675857",
"A  c #755957",
"S  c #57635B",
"D  c #705769",
"F  c #4D6C6C",
"G  c #716571",
"H  c #883934",
"J  c #B13A36",
"K  c #954B19",
"L  c #8C4B2F",
"P  c #B04C2C",
"I  c #AA483A",
"U  c #B74938",
"Y  c #AD3C48",
"T  c #894A4F",
"R  c #9A4749",
"E  c #984A57",
"W  c #87575A",
"Q  c #995859",
"!  c #A74642",
"~  c #B64A48",
"^  c #B0504F",
"/  c #B85449",
"(  c #A84A58",
")  c #A65556",
"_  c #B45658",
"`  c #90615D",
"'  c #885868",
"]  c #92596F",
"[  c #AA5968",
"{  c #9A6268",
"}  c #94647A",
"|  c #B1736C",
" . c #C3524F",
".. c #DE6D57",
"X. c #D36F5C",
"o. c #E36A5B",
"O. c #EA695A",
"+. c #F2695D",
"@. c #E3735D",
"#. c #E9735E",
"$. c #CF6C6D",
"%. c #DB6C69",
"&. c #C9746A",
"*. c #D97668",
"=. c #CB7974",
"-. c #D97A74",
";. c #E96B63",
":. c #F46B63",
">. c #F46A68",
",. c #E47465",
"<. c #EB7263",
"1. c #E8766B",
"2. c #F27368",
"3. c #E57674",
"4. c #F27877",
"5. c #578200",
"6. c #5A8502",
"7. c #5E8902",
"8. c #5C8608",
"9. c #5D8F09",
"0. c #5F9103",
"q. c #628D04",
"w. c #688B04",
"e. c #628D09",
"r. c #659205",
"t. c #699505",
"y. c #6C9906",
"u. c #66920B",
"i. c #69950D",
"p. c #659A0C",
"a. c #6D9A0C",
"s. c #779B0B",
"d. c #719D0C",
"f. c #648D12",
"g. c #6D8A11",
"h. c #679212",
"j. c #6B9513",
"k. c #679B13",
"l. c #6E9A13",
"z. c #6C9619",
"x. c #679919",
"c. c #6E991A",
"v. c #729D14",
"b. c #779818",
"n. c #729D1B",
"m. c #6CA20D",
"M. c #75A30D",
"N. c #79A70F",
"B. c #6EA317",
"V. c #75A215",
"C. c #79A615",
"Z. c #7BA915",
"A. c #76A11B",
"S. c #79A51C",
"D. c #76AA1A",
"F. c #7DAA1C",
"G. c #7CB11E",
"H. c #759F21",
"J. c #7D9F25",
"K. c #76A221",
"L. c #7AA522",
"P. c #76AA21",
"I. c #7EA923",
"U. c #7CA529",
"Y. c #7EA82B",
"T. c #7DB026",
"R. c #7FA135",
"E. c #929A1D",
"W. c #81AE17",
"Q. c #85A91C",
"!. c #81AD1D",
"~. c #83B21D",
"^. c #AF942F",
"/. c #87A924",
"(. c #82AE24",
"). c #81AC2B",
"_. c #8BAD2B",
"`. c #85B224",
"'. c #88B526",
"]. c #86B22C",
"[. c #89B42D",
"{. c #8EBB2D",
"}. c #92B52B",
"|. c #82AC32",
" X c #86B132",
".X c #88B235",
"XX c #8EB934",
"oX c #92BA36",
"OX c #CB932E",
"+X c #C6A33D",
"@X c #96C334",
"#X c #96B552",
"$X c #B68F73",
"%X c #C79E55",
"&X c #CD9278",
"*X c #CCAC71",
"=X c #C8A67A",
"-X c #D3A679",
";X c #AFCC72",
":X c #3C6F80",
">X c #9F658B",
",X c #DA7F86",
"<X c #B09593",
"1X c #BBA68F",
"2X c #AF9DAE",
"3X c #B6A9B4",
"4X c #C98E87",
"5X c #C79A88",
"6X c #E7939D",
"7X c #C6A487",
"8X c #D7A689",
"9X c #C9A794",
"0X c #D5AF90",
"qX c #E7A18F",
"wX c #D6ACAF",
"eX c #C5A8B9",
"rX c #D9A7BA",
"tX c #E8A9B3",
"yX c #E5B1B9",
"uX c #E8CB9F",
"iX c #EACBAB",
"pX c #F7C8AA",
"aX c #EED5AE",
"sX c #F8D2AB",
"dX c #F8CBB7",
"fX c #ECD2B8",
"gX c #F7D5B8",
"hX c #B7B3C8",
"jX c #B1B0CF",
"kX c #B6B7D5",
"lX c #B2BBE5",
"zX c #C7ABC5",
"xX c #C8B6C9",
"cX c #D7B1CD",
"vX c #D8B8C9",
"bX c #C7B9D9",
"nX c #B4C3D9",
"mX c #B8C4E5",
"MX c #D2C1C7",
"NX c #F8CBC7",
"BX c #EDD2CE",
"VX c #F8D9C8",
"CX c #FDDDD5",
"ZX c #FFE7C2",
"AX c #FDE3D9",
"SX c #F1DDE7",
"DX c #D7EEF8",
"FX c #EAE9F8",
"GX c #F7E9F4",
"HX c #F8EEF1",
/* pixels */
"n.|.|.).[.F.C.A.]..XY.K.6.n.v.C.!.@Xa.a.F.r.d.a.n.v.S.V.!.~.~.i.n.).|.).[.S.C.v.[..X).S.6.n.v.C.!.@Xa.a.F.r.l.a.n.v.C.s.Q.S.l.I.",
"h.e.v.H.Y.n.I.n.S.A.h.n.c.I.n.v.F.F.F.F.v.d.j.l.I.(.V.a.'.[.`.j.j.8.l.H.Y.n.I.A.A.A.h.n.l.Y.A.v.F.F.F.F.v.i.l.l.I.I.M.a._.L.u.n.",
"S.8.v.L.L.z.U.L.F.I.A.).I.K.e.e. X(.i.(.A.].j.u.A.(.V.Z.].n.l.v.S.6.v.L.L.z.U.Y.S.I.n.).I.n.e.e.[.(.i.(.C.].j.r.n.I.V.Z.}.S.l.A.",
"I.].L.K.L.A.U.U.I.i.L.).).S.S.S.'.v.C.d.V.'.S.S.S.A.Z.F.F.n.S.S.I.).L.L.L.A.S.).I.i.L.).).A.A.S.[.v.Z.d.a.`.(.S.S.A.C.`./.n.V.C.",
").I.S.v.v.Y.Y.U.A.I.`.A.I.A.i.7.S.y.a.C.V.a.t.u.S.a.y.M.M.V.L.I.].(.A.v.n.Y.Y.U.A.I.`.A.I.A.u.7.S.a.i.C.V.a.t.r.S.a.a.M.V.b.S.D.",
"(.I.V.e.e.U.U.n.h.C.C.j.I.A.'.(.{.a.M.Z.M.y.q.t.`.a.i.M.~.F.l.n.L.(.V.e.e.U.L.n.h.C.C.j.I.A.[.(.{.d.M.F.M.y.r.t.`.k.t.M.~./.v.m.",
"A.)..XU.n.I.v.i.i.(.).i.j.5.v.V.F.t.C.y.d.`.v.V.S.l.l.F.`.Z.d.d.C.)..XU.H.I.v.i.u.(.).h.z.5.v.v.F.t.C.y.d.'.d.V.S.v.a.Z.~./.b.m.",
"i.n.|.|.).[.F.C.A.]..XY.K.6.n.v.C.!.@Xa.a.F.r.d.a.n.v.S.V.!.~.~.i.n.).|.).[.S.C.v.[..X).S.6.n.v.C.!.@Xa.a.F.r.l.a.n.v.C.s./._.G.",
"i.h.e.v.H.Y.n.I.n.S.A.h.n.c.I.n.v.F.F.F.F.v.d.j.l.I.(.V.a.'.[.`.j.j.8.l.H.U.n.I.A.A.A.h.n.l.Y.A.v.F.F.F.F.v.i.l.l.I.I.M.a._..XF.",
"l.S.5.v.L.L.z.Y.L.F.I.A.Y.I.K.e.e. X).i.(.A.].j.e.A.(.V.Z.[.n.j.v.S.5.v.L.L.z.U.U.S.).n.).I.n.e.e.[.(.u.(.C.[.j.q.n.T.V.Z.}.b.p.",
"I.L.[.n.L.I.n.Y.).].7.L..X Xn.I.].XXi.F.i.i.oXL.L.I.A.C.`.`.n.n.L.L.[.A.L.I.n.(.).[.7.L..X.Xc.I.).XXi.F.i.e.XXI.L.I.n.C.'._.n.V.",
"L.I.).L.S.H.n.L.j.I.n.oXH.L.).n.e.I.h.6.j.j.n.q.5 5 4 t 2 2 2 e e e t t 4 < n.K.j.I.n.oXA.I.|.v.e.I.l.6.i.z.n.q.v.I.V.r.t.g.e.p.",
").].Y.c.H.L.F.!.h.L.).|.I.L.).j.e.K.v.5.A.n.l.q.e q w w w 8 8 8 8 u 8 w q < I.I.i.U.Y.].U.K.).j.h.n.n.5.A.n.l.q.x.K.l.C.A././.D.",
"v.L.c.f.S.L.A.).A.|.).z..Xn.A.L.S.z.).n.k q q r 4X| =.&.-.$.-.%.*.-.-.&X4X<Xw q q t |.z..Xn.A.L.L.v.).v.S.v.L.I.S.A.V.r.d./.).V.",
"L.`.v.v.n.h.f.U.H.).L.n.).e.L.).I.n.XXn., i u 0 -.-.*.,.2.>.2.<.2.o.1.%.$.=.0 u u w L.n.I.u.U.].L.n.XXn.n.i.L..XS.I.(.C.L./.}.P.",
"L.(.a.C.h.8.f.|.z.z.l.I.n.v.L.j.n.].4 r { R -.,.*.*.X.*.o.2...@.O.O.<.2.1.1.3.*.( Q t 5 n.l.L.j.n.).L.S.A.S.A.S.v.(.(.'.).b.J.D.",
"L.oX[.l.n.l.n..Xz.z.n.n.z.S.A.u.n..Xq w Q ^ 2.O.o.#.@.#.+.+.@.@.<.O.O.o.<.#.#.O. .E q 5 l.S.L.u.n.[.e.S.S.I.v.i.u.I.a.V.S.g.b.P.",
"u.S.).z..X).v.I.A.).).i.e.l.I.].i.v.< w ) / ;.2.o.#.#.<.+.:.<.2.2.<.:.:.@.,.O.@. .) t 5 e.l.L.].i.v.i.n.u.v.l.a.q.V.q.p.(.b.b.A.",
"e.j.I.F.[.r.F.L.n.).(.n.d.a.C.'.S.v.4 y =.3.;.<.+.+.+.+.;.<.:.;.o.o.:.:.,.*.<.@.;.=.y 3 d.a.C.`.S.v.(.C.F.u.(.v.[.F.a.~.M.Q.S.p.",
"j.i.i.(.F.V.].v.z.).n.A.a.q.a.!.F.M.< w -.4.;.<.:.:.+.;.,.1.>.>.,.2.>.>.,.X.1.@.@.-.y 4 a.r.a.(.W.v.C.`.`.V.`.C.`.`.(.Z.y.s.s.k.",
"n.l.l.i.e.V.(.L.L..X).S.a.7.r.C.~.V.y u 3.1.;.o.O.,.2.%.=.&.%.3.*.-.>.>.*.*.O...<.&.8 y a.7.r.C.!.V.a.C.!.F.`.F.V.S.V.G.y.s.t.r.",
"n.S.S.i.v.S.r.].L.f.).F.V.a.d.!.5 t 6 p X.1.1.,.2.2.3.&.4X$X| &X&X&.3.;.*.1.<.#.@.*.p 6 < n d.F.`.C.a.v.S.F.F.~.t.d.d.~.C.W.d.p.",
"I.n.l.V.V.C.7.I.n.5.n.L.I.(.).(.5 < { _ I  ...@.1.1.&.4XVXAXVXCXAXyX6X$.%.,.@.o.U / R { y 1 (.(.(.I.V.F.`.S.d.F.t.Z.Z.Z.C.'.Q.V.",
").L.l.F.e.v.a.l.A.L.L.A.S.].`.A.3 r Q ~ / U @.@.&X&.| $XCXAXCXCXAXBX4X,X$.3.,...U ~ _ { r 4 ].A.v.C.V.V.~.C.a.F.M.V.C.Z.C.Q.F.D.",
"L.L.S.[.v.A.F.i.n.Y.L.n.v.S.S.i.% - E ( / U ~ P I ) tXrXGXCXE ` AXAXyX6X_ ~ ^ ^ U  .~ R @ X S.i.u.v.l.r.S.V.a.!.Z.M.m.Z.V.W.Q.B.",
"z.l.S.I.`.v.A.i.n.n.).L.j.v.n.e.* - Q ! I / U  ./ ) yXyXBXCXQ Q AXBXMXrX[ ^ ~ ~ U  .^ { + * n.u.u.V.V.t.'.C.y.Z.~.F.Z.r.y././.x.",
"|.S.L.I.v.C.(.I.8.L.n.I.(.(.q.u.X # { ! _ / ~  .E ( vXxX] { T ' ] G hXxX} [ ) ) ~ ~ ^ {   o q.e.e.V.S.'.F.Z.F.t.F.~.V.`.C./.C.9.",
"n.L.L.A.v.].].S.6.j.h..XI.n.h.(.X # C T [ ! ^ R } >XzXbX' ] } } D G bXbX} ' W Q ) _ ( W X   j.(.S.V.l.C.C.C.Z.t.Z.!.F.G.a.s.i.x.",
"n.).L.n.e.d.v.).(.L.h.L.S.I.L.(.O # r y Q _ tXyXeXhXkXkXjXcXeXrXvX2XkXbXzXcXvXtXQ E u q   O S.I.u.i.v.v.F.(.`.V.F.F.`.I.v.w.w.K.",
"Y.).I.I.v.(.C.A.I.H.L.I.L.n.n 4 O & t 9 Q R tXcXhXmXlXlXmXbXzXvXvXzXbXjXkXkXeXtXQ Q w 2 = O f 9 i.7.r.V.'.[.[.`.(.Z.D.I.(.b.q.P.",
"|.z.I.).I.).A.A.).L.).j.{.oX4 4 @ # 2 e W [ yXcXkXnXkXlXlXjXnXxXrXvXhXkXmXjXxXvX` ` w e . # e e R.u.A.V.I.`.`.].F.v.a.Y.[._.b.x.",
"L.8.L.I.S.a.v.F.XXY.(.(.[.F.  . 8X$XA V r y l 3 hXnXFXFXDXDXDXGXGXGXFXFXjXbXj l q w C N -X=X  * ;XV.i.S.v.A.V.I.S.S.v.Y.S._.I.k.",
"z.e.A.(.[.V.V.i.h.j.I.I.].C.  # &X&XC V y < k y xXzXSXGXFXDXFXSXHXBXFXHXhXjXl l 2 e g h qX8X. + ;XA.F.F.i.v.l.A.A.(.V.A.A._./.x.",
"f.).n..X[.5.e.i.v.n.I.[.(.v.. . -X=Xt j D Z n Z V ' W M f 1 3 k 5 j Z V V D l D m A e 7 &X=X# = ;XC.(.F.t.v.d.v.l.S.p.j.L.}.!.k.",
"S.L.z.n.n.L.v.].v.j.v.].S.(.    5X9Xl j Z f Z Z V N N h 7 7 y q t 4 V V Z V A C h B e q 7X7XO % ~.~.Z.Z.Z.y.a.F.a.I.V.V.V.Q.'.p.",
"(.|.|.H.n.L.n.I.n.C.I.I.I.(.a.t.. # j y 7X7XA M 0X9Xr y 8X0X0X5X9X1Xk k 3X2XB N =X=X2 t $ @ #Xr.W.Z.N.N.W.Z.W.M.V.C.S.D.V.s.(.V.",
").(.S.l.n.).|.Y.A.(.`.A.I.v.u.7.% = 3 7 -X-Xh h 7X1X< q 9X&X0X8X5XwXq t 2X2XM B =X$Xe 4 . # r.7.C.a.d.Z.N.y.y.q.C.a.x.V.C.b.W.S.",
"(.L.V.u.e.U.L.n.h.C.C.i.I.A.[.!.{.a.@ $ -X%X*X=XAXAX# . VXdXpXdXdXNX@ # SXHX9X=X-X0X# & I.A.[.(.{.y.M.F.M.y.r.i.).l.t.V.'.W.d.V.",
"n.|..XU.n.I.v.i.u.(.].h.j.5.v.V.S.t.. $ 5X8X*X=XAXAX$ @ aXsXdXNXdXpX- @ SXSX7X=X=X1XO % l.5.v.V.F.t.C.y.a.'.v.V.S.v.a.D./.W.d.l.",
"y.n.Y.|.)..XC.C.V.]..XY.L.6.n.v.S.!.@Xa.$ $ 1X7XBXBXfXfXgXfXVXfXgXaXpXdXVXNXwX9X$ . .XI.L.6.n.v.C.(.@Xa.a.Z.t.a.a.n.V.S.l.!.`.I.",
"i.h.8.l.A.I.n.I.n.S.A.h.n.c.Y.n.v.F.C.I.O O 9X8XVXfXgXsXdXgXiXVXiXZXuXsXdXdX-X9X@ O n.h.n.l.Y.A.v.F.S.F.F.v.a.l.z.I.T.V.a.'.'.(.",
"n.S.6.v.L.U.z.).L.I.I.A.Y.I.n.e.u.[.(.i.= o N T &X8XiXdXsXsX5X8XfXuXdXiXqX6Xh N X o L.L.).I.n.e.e.[.).i.(.S.[.j.e.n.Y.C.C.[.C.p.",
"L.S.[.A.L.U.n.).|.].6.L..X.Xn.I.(.XXu.L.o # L L 8X7XVXBXaXsX8X-XgXfXgXgX9X8XK L     7.L..X.Xc.I.].XXi.S.i.u.XXI.I.I.n.K.[./.s.A.",
"L.(.].L.S.L.n.A.j.I.A.oXn.I.).n.u.I.j.# 5 : %X^.L C < 2 1X0X=X-X&X0X: e T L ^.^.f 4 % % n.U. Xv.q.I.j.7.j.j.n.e.v.I.n.9.t.w.w.p.",
"(.|.Y.c.n.L.F.I.h.U.).].U.L.).j.q.n.% o 1 d %XOXP T k t <X9X=X=X8X7Xl k C H +X^.: 5 > = L.L.|.j.f.n.n.6.A.n.l.q.x.K.l.A.S.Q.Q.D.",
"v.L.z.h.H.L.C.(.A.|.Y.z..Xn.A.L.g W 5 s s a ^.OXP I eXhXj ; g 9 7 4 2XzXE P OXE.a s j k m m S.L.L.v.).l.A.l.L.I.C.A.A.e.j.C./.A.",
"L.`.l.V.n.f.f.U.H.I.S.n.I.h.L.].i N e a s d ^.OXP K tXzXk 3 5 2 1 t zXyX! P OX^.a s f g g M L.).L.n.XXA.n.i.I..XL.I.(.K.L.!.[.I.",
"L.).a.C.l.8.f.|.z.j.z.I.n.l.m M NXdX9X7Xf f h h I J ! [ rX3Xn j jXhXE ^ J J K h d : 9X7XpXNXz M n.[.H.S.K.C.A.S.v.(.(.[.(.d.S.D.",
"F..X[.l.n.l.n..Xz.j.n.n.j.S.M N fXgX8X5Xe t g W I U J Y wX3Xj n kXhX^ J U ! M Z e e 5X-XpXdXT N n.[.e.S.L.I.v.i.u.F.v.A.L.w.v.I.",
"u.L.).l..X(.l.(.A.).|.i.u.v.m M fXVXdXNX@     @ L H Y R yXbXj 3 hXcXY Y J R . + + @ VXaXaXgXi N i.v.i.n.u.v.v.i.q.A.7.p.I.d.v.B.",
"u.j.(.I.[.r.L.L.n.|.(.n.d.a.Z m fXdXdXNX$   *   N p E E 2X3Xx j 3XeXQ ) p g o o = . NXgXgXdXW i S.v.(.C.F.r.(.V.[.F.a.`.V.W.Q.p.",
"j.u.i.(.F.v.[.v.l.|.n.C.a.q.a.(.h h L i - o F F # $ - - . + O O & O $ . # @ G G % ; M N p g a.!.F.v.C.`.'.V.`.V.`.`.(.Z.y.s.s.p.",
"v.v.l.i.e.V.I.F.L..X].S.a.7.r.Z.g g N M . o F F o o O X   * o & = %   o +   F S = # M N N A r.F.!.V.a.C.I.F.`.F.V.Z.V.G.a.s.t.t.",
"n.S.S.i.V.C.t.].K.h.Y.S.V.a.a.F.'.S.a.M.o = c c c j v F b F v j F :Xv F 2 4 n x o * Y.F.V.a.d.F.`.Z.a.d.S.!.F.W.t.d.m.G.Z.W.d.r.",
"I.n.l.V.V.C.7.L.n.5.n.S.I.(.`.(.I.I.C.S.* o 3 t t l F v F b c x b b F n f q y y   o n.L.(.(.).(.(.I.V.F.`.F.a.F.t.C.F.D.Z./.!.V.",
"Y.L.v.L.e.v.a.l.K.L.U.A.S.'.].C.v.C.V.C.@ - E ( Y E $   X X o & & % o X A R E R @   L.A.F.].`.S.V.C.V.V.!.C.a.G.d.C.Z.F.C.Q.S.D.",
"L.L.S.{.v.A.F.u.n.Y.L.n.z.A.S.i.u.v.v.q.@ - E ( ( E - . o o % = % = O @ W E E E + * H.n.v.n.S.i.t.v.a.r.S.V.y.~.Z.V.m.D.V.Q.S.A.",
"z.l.S.I.(.v.V.l.n.n.).I.j.v.v.e.u.V.V.t.~.V.. . $ @ F.r.y.].(.c.l.z.L.F.. @ . # n.n.).I.z.v.v.e.u.v.V.i.'.C.y.F.W.W.F.0.y.'.(.k.",
" XL.L.I.v.C.(.I.8.L.n.I.).(.q.u.q.V.S.].F.S.X X X X V.`.C.].A.e.[.K.L.I.  o o o 8.L.n.I.).(.q.u.e.v.S.'.F.S.F.t.F.~.V.`.A./.C.9.",
"n.K.L.V.V.].[.S.6.j.f.[.L.n.j.).C.A.l.C.Z.C.Z.t.C.~.F.(.a.j.j.l.n.L.L.A.n.`.].S.8.j.h..XL.n.j.(.S.A.l.C.D.C.C.t.Z.!.F.I.l.s.s.x.",
"z.Y.I.A.e.d.v.).(.L.h.S.S.(.F.I.t.u.v.v.F.~.!.V.F.F.`.(.l.e.8.U.c.).L.A.r.d.V.(.).L.h.A.L.I.S.I.i.i.v.v.F.(.`.V.S.F.T.T.v.w.q.K.",
"/.).L.I.V.(.A.A.).H.L.I.L.A.v.A.i.e.r.v.`.[.[.`.!.C.C.(.].V.e.K.Y.Y.L.I.v.(.A.A.).H.L.Y.L.A.V.A.t.7.u.V.`.[.[.'.`.C.C.Y.).b.e.K.",
" Xz.L.(.I.(.A.n.).L.).l.[.oX(.i.7.r.A.A.I.`.(.].I.v.y.(.].].b.c.|.n.U.(.I.`.A.A.].K.).l.[.oX(.u.7.r.A.V.I.`.`.[.S.V.a.).|._.b.x.",
"K.8.U.I.S.a.v.L.XXI.Y.(.[.S.S.F.`.V.i.C.V.A.V.I.S.S.v.I.L.].Y.j.H.8.U.I.C.i.v.F.XXI.Y.`.[.S.S.S.[.V.i.S.n.V.V.I.S.S.B.).L._./.x.",
"K.8.U.I.S.a.v.L.XXI.Y.(.[.S.S.F.`.V.i.C.V.A.V.I.S.S.v.I.L.].Y.j.H.8.U.I.C.i.v.F.XXI.Y.`.[.S.S.S.[.V.i.S.n.V.V.I.S.S.B.).L._./.x."
};
