/* XPM */
static char *cf96128c096a4f98980472e7ed0ff5d9BTRVSbr0eEg2P158[] = {
/* columns rows colors chars-per-pixel */
"64 64 256 2 ",
"   c #030300",
".  c #010B00",
"X  c #0C0600",
"o  c #130200",
"O  c #1B0100",
"+  c #190C00",
"@  c #031200",
"#  c #091800",
"$  c #171500",
"%  c #220200",
"&  c #2B0702",
"*  c #330400",
"=  c #271402",
"-  c #371910",
";  c #172300",
":  c #382906",
">  c #283500",
",  c #393609",
"<  c #3C371B",
"1  c #302B12",
"2  c #3A322C",
"3  c #351A23",
"4  c #4F1F10",
"5  c #631E15",
"6  c #492608",
"7  c #562708",
"8  c #463909",
"9  c #4A2816",
"0  c #572B17",
"q  c #493819",
"w  c #573618",
"e  c #553304",
"r  c #623817",
"t  c #672E11",
"y  c #4B2826",
"u  c #572B28",
"i  c #483727",
"p  c #573627",
"a  c #582C37",
"s  c #473A35",
"d  c #563836",
"f  c #4F2C30",
"g  c #643726",
"h  c #673736",
"j  c #703131",
"k  c #461C28",
"l  c #384306",
"z  c #394C0C",
"x  c #3E4331",
"c  c #474A19",
"v  c #59451A",
"b  c #4C540E",
"n  c #744E14",
"m  c #5C691B",
"M  c #5A7A0D",
"N  c #484828",
"B  c #594928",
"V  c #584A3A",
"C  c #4F4E38",
"Z  c #674828",
"A  c #754B27",
"S  c #7A5429",
"D  c #674B38",
"F  c #7A4B38",
"G  c #785537",
"H  c #675A2A",
"J  c #767B37",
"K  c #687334",
"L  c #60701F",
"P  c #383B40",
"I  c #563A43",
"U  c #6B3E45",
"Y  c #514B4E",
"T  c #6A4D45",
"R  c #775545",
"E  c #665A58",
"W  c #755957",
"Q  c #645943",
"!  c #737C45",
"~  c #775B64",
"^  c #6C6363",
"/  c #A33E36",
"(  c #855405",
")  c #985601",
"_  c #8C510E",
"`  c #AC6E0D",
"'  c #864B27",
"]  c #865429",
"[  c #8E5135",
"{  c #AF493D",
"}  c #8F713A",
"|  c #945C08",
" . c #865848",
".. c #99564C",
"X. c #895656",
"o. c #995656",
"O. c #924B4C",
"+. c #A94A47",
"@. c #B84944",
"#. c #A85547",
"$. c #B85449",
"%. c #AB4D53",
"&. c #A65756",
"*. c #B85758",
"=. c #BC4E51",
"-. c #966851",
";. c #A76559",
":. c #B3635A",
">. c #9A5C66",
",. c #92636A",
"<. c #B4746A",
"1. c #A15964",
"2. c #C45956",
"3. c #C34D4C",
"4. c #DA6C59",
"5. c #EA6D5D",
"6. c #E76C59",
"7. c #E5735B",
"8. c #E9715C",
"9. c #E2785E",
"0. c #F6705F",
"q. c #D76B65",
"w. c #C6756D",
"e. c #D8746A",
"r. c #CA7B74",
"t. c #D97A72",
"y. c #CA6C6C",
"u. c #EB6D64",
"i. c #E86C68",
"p. c #F56A68",
"a. c #E57363",
"s. c #E87368",
"d. c #F5786A",
"f. c #E77675",
"g. c #EB7074",
"h. c #E55D5D",
"j. c #5D8A02",
"k. c #598505",
"l. c #5E930F",
"z. c #628D04",
"x. c #638E0B",
"c. c #688C08",
"v. c #649104",
"b. c #699506",
"n. c #6D9B03",
"m. c #65930B",
"M. c #6A950C",
"N. c #6D9A0C",
"B. c #67990C",
"V. c #729D0D",
"C. c #73970A",
"Z. c #648C12",
"A. c #698A19",
"S. c #718D18",
"D. c #669313",
"F. c #6B9513",
"G. c #6E9A13",
"H. c #6B931B",
"J. c #6E991A",
"K. c #639910",
"L. c #729D14",
"P. c #739D1B",
"I. c #769A16",
"U. c #74A20E",
"Y. c #78A40C",
"T. c #6EA217",
"R. c #75A214",
"E. c #79A516",
"W. c #7CAA15",
"Q. c #75A21B",
"!. c #7AA51C",
"~. c #7DAA1C",
"^. c #75A919",
"/. c #77AB15",
"(. c #6A8A28",
"). c #768A29",
"_. c #6D9524",
"`. c #749D24",
"'. c #759C2A",
"]. c #789927",
"[. c #768B37",
"{. c #789836",
"}. c #6E8C36",
"|. c #75A222",
" X c #7BA523",
".X c #7DAA23",
"XX c #7CA42A",
"oX c #7EA92B",
"OX c #76A725",
"+X c #7DB226",
"@X c #7EA534",
"#X c #7AA535",
"$X c #6DA52A",
"%X c #7B914B",
"&X c #7BA041",
"*X c #B3990B",
"=X c #81AC1E",
"-X c #84A818",
";X c #84B11C",
":X c #84B419",
">X c #BBA107",
",X c #829A2A",
"<X c #84983A",
"1X c #94943A",
"2X c #B89A3C",
"3X c #B09236",
"4X c #82AC24",
"5X c #82AC2B",
"6X c #84A727",
"7X c #84B224",
"8X c #89B424",
"9X c #85B22B",
"0X c #8AB42B",
"qX c #8AB92B",
"wX c #84AC33",
"eX c #86A83A",
"rX c #93AC3B",
"tX c #85B231",
"yX c #8BB433",
"uX c #8DBA32",
"iX c #8AB638",
"pX c #92BA34",
"aX c #91BD2A",
"sX c #BFA02B",
"dX c #C58F17",
"fX c #C8952C",
"gX c #CCA92F",
"hX c #96C137",
"jX c #889747",
"kX c #8C9B54",
"lX c #8F8D50",
"zX c #A78549",
"xX c #AF8F51",
"cX c #88A445",
"vX c #95A558",
"bX c #8FAB49",
"nX c #B2946A",
"mX c #ACA163",
"MX c #C3914D",
"NX c #C7A95E",
"BX c #CC8A78",
"VX c #C5A374",
"CX c #A2C744",
"ZX c #D47C84",
"AX c #E57B84",
"SX c #B39A97",
"DX c #B6A492",
"FX c #AEA195",
"GX c #C7A798",
"HX c #C7ADA7",
"JX c #D58D84",
"KX c #EDCFB7",
"LX c #D8C7B5",
"PX c #EBD4C7",
"IX c #EFCEC8",
"UX c #FDE0CE",
/* pixels */
"m.M.G.9X0XQ.G.M.M.G.Q.uX9X!.9X.X9XT.OX^.R.U.v.E.=XW.R.L. X5XXXP.x.F.J.yXyXL.L.G.m.v.~.7X^.^.^.~.7XE.~.R.N.R.N.E.E.=X~.N.L.=X~.b.",
"P.Q.Q.9X.XM.m.m.P.Q.Q.9X4XQ..XQ..X^..X^.N.N.b.R.M.R.R.L.!.5XXXH.`.XX`.5X Xx.M.M.Q.G..XqX.X+X.X7X~.~.=XE.N.N.b.R.b.E.E.N.E.qX7Xb.",
".XQ.G.L.G.F. X0XL.P.Q.9X4XQ..XG.7X7X7X.XR.L.R.~.N.^.~.G.L..X XF.`. X`. XP.M.P.6XP.P. X5XXX|.G.F.4X7X7X4XE.L.R.^.N.^.~.V.R.7X4XN.",
"4X.X!.!.!.Q. X.XP.!.!.9X5XQ.L.z.~.W.E.=X=XE.~.~.R.~.^.L.P.XX5XXXtXwXXX`.P.I.6X5XP.P.XX5X5X XG.m.~.~.~.4X4X^.~.~.R.~.~.L.N.R.^.~.",
"9X.XQ.L.Q..X!.Q.Q.4X!..X.XG.G.v.:Xn.n.W.W.n.v.b.~.V.M.P.XX6X5XwXbX@X`.H.P.XX6XXX X4X5X4X.XR.B.v.~.L.N.R.^.V.b.v.~.N.N.R.^.E.^.4X",
"9X.XG.z.M.!. X!.m.Q.G.G.L.L.4X7X:Xn.n.Y.W.U.z.v.=Xb.c.!.0X!.G.P.oX'.`.D.P.5X XL.M.!.!.P.^.!..XqX7XL.L.L.R.R.v.z.7XN.v.^.0X4XR.L.",
"Q..X9X!.Q. XG.x.Q.uX4XP.F.x.L.!.~.N.=XR.E.7XV.E.-XC.C.-X;XY.n.n.!.OX+XT.Q.OXK.v.B.4XOXG.D.k.D.P.!.L.4XL.R.7XL.R.~.L.N.^.4X4XR.M.",
"z.Q.yX5X.X9X.X XF.uX0X XG.z.F.Q.oX.XhXG.v.~.b.C.C.C.I.-X-X-X-X8Xm.T.iXoX XtXOX!.B.qXuX.XP.Z.H.`..X~.hXL.v..Xm.N.v.L.^.R.L.~.4X4X",
"F.x.k.F..X XP.XXP.Q.P.P.G.P..XJ.|. X5X X4XC.E.M.I.6XyXP.`.pX0XyX`.H.Z._.#X#XOXOXOXB.~.m. X`.'.oXG.4X.X~.4XL.L.m.M.!..XL.R.4X9X.X",
"P.G.F.P.XXQ.P..XQ.5XQ.Q.5X.XQ.F.x. X!.L.!.L.5XH.H.).cXjX{.bXcX[.{.[.K }.jX{.(.eXXXQ.G.K.OX|.J.k.L.9XL.L.!.N.4XR.m.L.^.!.4X9X.XG.",
" X5XXX X XP.P.oXoXtXP.|.5X5X XG.~.uX~.b.E.P.bX{.[.l > , , , , : 8 q 8 , c > b bX<XeX`.9X.X.X+XG.^.pXL.G.!.G.uX!.4X4X.X.X4X4X!.L.",
"XXtX5X X X|.|.5X|.P.P.5XoXXX5XG.B.~.M.x.P.M [.K lXv : q p u p p 0 g g 0 0 9 B -.jXjXA.iXOXT.+XOXm..XM.z.N.v.L.j.Q.Q.G.m.m.M.M.m.",
" X5X XP.|. X XoXF.P.XXyX5X|.XXJ.D.J.H.(.[.b 8 8 r <.JX<.<.r.r.w.w.w.r.r.<.BX;.w 8 8 l cXcX#X$Xl.m.Q.Q.z.G.G.M.x.G.Q.!.Q.!.4X4X!.",
" X XP.J.P.P.P.5XP.5XXXXX XJ.Q.5X`.'.cX<XlXv 6 0 5 w.BXe.e.e.e.q.f.e.f.t.e.JX<.5 0 6 q J {.#X#X$X X.X9XL.!..X X9XL.P.L.G.L. X.X!.",
" X XP.P.J.Z.F.5X X5XP.P.P.F.P.wXwX{.<X8 w [ ..r.e.f.i.u.d.5.5.u.a.4.s.s.q.f.AXy.ZX.. .v b (.wXiXQ.!..XL.!.L.Q.0X0X9X4X.X!..X4X9X",
"XXoX XQ.F.k.x.5XZ.Z.H.5X XG.Q.F.'.eXvX: 7 ;.*.f.g.i.h.p.p.6.0.6.d.4.4.a.s.i.g.AXAX&.;.6 8 [.].H.Q..X.X.X.XM.Q.4XL.Q.5X0X.XP.P..X",
" XpX9Xz..XG.J.yXH.H.J.F.M.R.E.B.`.eXJ 8 7 <.e.f.g.g.i.u.5.8.8.8.9.9.7.7.u.u.i.i.f.t.BX7 8 jXeXD. X4XF.Q. XL.E.x.b.!.G.Q.Q.F.M.4X",
"F..X9XP.5XQ.P.XXoXwXoXP.F.R.=X.X`.}.J v t t.s.q.i.i.a.a.7.7.8.7.a.9.7.7.u.u.u.u.s.q.w.t w J }.bXH.L.M.P.P.F.Q.b.M.L.m.L.!.Q.F.L.",
"x.F..X~.4X.X.X`.`.oXoXP.M.N.E.5X].b v F [ e.a.u.u.8.7.7.7.8.5.u.a.a.7.7.8.8.5.5.d.q.t.[ F v b bX`.!.Q.4XE.G..XL.4X=XL.!..X.XL.G.",
"F.F.L.R.^.!..XXXJ.XX XP.m.j.b.6XjX, 6 ..+.e.u.5.6.6.7.7.7.8.u.u.s.a.5.7.7.8.8.6.6.6.f.*.-.w > kXeX4X.X0X.XE.0X!.0X7X~.=XL.L.L.L.",
"P.Q.M.N.L.R.Q.5XXX5XoX XG.j.v.5XvX8 w o.%.f.d.0.6.6.7.7.7.5.u.u.p.p.u.5.7.7.6.6.d.i.f.%.o.0 : vXeXP.G.!.~.~.0X=XR.E.!.~.b.M.M.M.",
"Q.!.M.N.L.R.F. XP.P.Q..X~.G.L.eXvX8 w o.%.i.u.d.5.7.7.7.8.u.p.p.p.p.u.u.a.9.7.7.d.i.q.+...w 8 kXcX XM.L.~.!.~.~.v.m.E.=XL.E.L.M.",
"Q.!.N.E.N.L.M.Q.m.m.G.!..X4X5XeXkX, 0 o.%.2.3.u.i.i.a.a.u.u.p.p.p.p.p.i.a.a.e.q.q.$.2.%.o.g q kXcXwXP.^.7XE.V.=XN.V.~.;X~.8X=XE.",
".XQ.N.~.b.N.G.Q.!.Q.R.R.~.9XtX{.%X8 p o.%.=.@.i.g.i.s.a.a.u.p.p.p.u.i.i.s.e.e.e.t.+.*.&...9 , jX{.oXP.^.8XU.N.7XE.E.E.E.V.7X~.^.",
"P.!.Q.7X~.V.^.m.L..XR.R.G.XXoX).J q 9 o.%.*.3.@.@.3.@.4.f.f.f.f.e.t.e.q.q.2.@.@.+.+.&.&.-.9 < K }.'.F.c.U.n.E.;XE.R.~.E.V.W.4X!.",
"P.Q.Q.~.E.R.~.N.M.~.~.~.L.P.`.L K q u X.O.%.=.2.3.2.$.q.t.y.w.BX<.<.<.r.e.$.{ $.2.*.o.X.X.i i ! L '. XQ.;XY.U.L.7X!.R.n.V.;X4XG.",
"|. X!.~.E.~.0X!.k.G.^.4X!.|._.b c < 3 a j O.+.@.{ @.#.:...g u p i q h o.:.+.{ 2.@.*...h d 3 2 C z '.XX X8X=XE.m.4X~.E.V.R.=X!.x.",
"XX X XE.R.~.9X Xj.M.L.~..XXX_.> ; V I k a O.%.+.{ #.#.-. .p i N x < d R ..+.{ 2./ *.o.u 9 d Y 1 l {.'.P.~.W.R.v.!.4X4X=XR.N.G.G.",
"XX`.Q.L.N.R..XP.!.Q.L.Q.XX'.(.@ ; FXSXI a o.&.#.#.#.[ j p q i x N i d h j O.$.$.+.&.X.u d SXSX+ # (._.P.!.;X=XL.4X.X4X7XR.z.m. X",
"eX'..X!.R.!. X X9X!.N.R.oX@X{..   DXHXd a X.o.....;.O.j p p s i i p d u j O.&.+.&.o.X.p y HXGXX . (._. X4XaXaX4X4X!.E.4X4XN.M.!.",
"eX`.5X7X~.~.!..X5X!.R.!.tXeX&X@ + GXGXy y h u 0 j o.&.o.o.o.>.X.;.;.>.X.X.>.o.j 5 u d y 1 GXGX+ . }._.XX~.7X0X4X X!.L.!.0X4XL.J.",
"XXZ.Q..XQ.R.F.Q.9X4X4X9XiX@X&X. + VXGXy u u 9 g 4 X.>.o.o.o.1.1.o.o.>.>.>.>.O.u u 9 f i i DXnXo # {._.Q.L.E.~.!.P.XXQ.L.4X0X!.L.",
"H.x.M.0X0XL.G.P.F.x.XXwX5XXXoXeXvXo % d p R  .6 u u u u u a a f u u a a a a u 0 w R D i < X   jXiXT..XQ.K.Q.G.Q.!.4X!.M.V.=X=XM.",
"P.P.!.0X4Xb.z.x.XXP.wXiXtX4X4X6XcX# $ 9 9 T G w p p p y y u y y y y y f y y 0 0 r Z Q i 1 $ . {.5X^.+X^.m.K.G.P.M.Q.E.N.E.aX8Xb.",
" X XQ.Q.L.M.!.5XP.H.XXXX5X!.P.M.9XrXjX$ o i d T R G S A S [  .O.X. .R R G S S G A q N   # %X(.'.9X~.7X7XQ.G.!.!.M.!.!.L.E.8X=XN.",
"5X5X.XQ.L.Q..X4XP.P.5X5X5X!.G.z.E.7X_.# $ < d T T G ] S ' ] [ [ O.F F A S S S A R q N . @ &X@Xl.~.^.^.7X~.^..X XP.!.!.L.L.E.!.W.",
"wX5XXXJ.L. X4X!. X X5XXX4XL.F.z.W.v.V.,XjX$ X y f D S n n ' [ ' [ ] ] A ] S A p i X ; %X{.|.D.k.~.N.B.E.E.N.B.v.!.G.M.E.!.E.E.=X",
"5XXXP.x.F..X XP.F.|. XP. XP.5X8X:XY.U.P.<X. X V d D [ ] ] [ [ [ ] ' [ A [ G G p s   . }.eX!.uX~.7XN.V.R.U.R.b.j.4XM.m.!.0X4XL.V.",
"'.XX5XXXXXXXF.z.L.5X5XJ.F.k.F.L.E.n.=Xc.[.c N X o o & 6 r A ' ' ] ' ' 0 6 % O o o 2 N }.Z.k.!.m.~.N.;XR.V.7XE.R..XL.L.E.4X4XL.M.",
"H.`.wX5X5X5XXX XG.uXpXXXP.x.H.!.R.4XCX_.jXN < o o o % 6 g F F ] ' '  .g 9 O % O o 2 N %XeXx.L.L.4X!.hXU.v.W.N.m.m.Q.!.P.L.!.4X=X",
"P.x.k.Z.XX XP. XL.!.!.J.J.`.XXJ.P.XX{.@ . C N i w nXnXw 6 9 0 0 7 j 4 0 Z xXnXw - s Y   @ {.@X`.F.4X=X=XW.R.E.v.M..X4XP.L.0X0X-X",
"`.P.H.P.XX XP. X!.!.L.P.XXoX'.H.A.cXkX#   s s i v zXxXe w v : e 7 7 r 0 r zXzXv D s 2 . # %X[.(.`.6X6XI.V.V.=XE.m.P. X X4X0X=XC.",
"XX6XXXXXXX!.P. X4XQ.J.XXwXeX@X'.cX@ @ 1 s s d p w VXnXO O xXxX2X2XxXzX% % VXNXn 6 d Y Y < $ # jXeXrX,XI.I.!.7X~..X X XXX6X6X-XI.",
"XX5X5X XXX XQ. XL.!. X5XwX@XeX[.[..   2 Y 3 d T Z nXxX= = 2XgX*X*XfX2X& & zXxXA F d 3 Y s X X ! ).,XS.c.F.L.V.j.OXQ.J.F.x.c.c.c.",
"4X5XP.J.Q. X X4XM. X5XtX@X@X{.m H LXPXHXDX- % X.D * * -.2XsX*X>X>X*XgXxX} - * A X.% & SXHXPXKXH m ).).S.F.F.B.j.K.Q.|.P.Q.6X4X-X",
" X XJ.F.P.P.Q.4XP.4XXXXX'.@X{.z B IXIXHXHXO O X.X.* * MXfX*X>X>X>X*X*XfXxX* * F X.O O SXSXPXUXB b <XrX,X`.P..X9XJ.|.`.F.J. X=XI.",
".X!.L.J.L.M.F.4X!. XP.'.'.{.{.b R IXIXIXIX& % h h 5 7 | ( dXgXdXdXgXdXn | e 0 g U % O IXPXKXKXH b jXcX].P.P..X9XtXtXoXXX X4X7X8X",
" X X!.Q.G.j.z..XF.L.J.XX`._.{.m B IXIXIXIXO O I U 0 t _ ( fX` fXdXdXfXn ( e 9 D d o o PXKXKXKXH m cXeX]. X X XQ.Q.OX5XyX5XL.L.=X",
" XuX.Xz.4XG.G.uXM.Q.P.D.F.|.P.).lXB D B V 2 Y ^ ~ i e xXfX) ` ) ) ) ) MXxX8 i E ^ C 2 V Z v Z } <XwXJ.P. XP.!.m.m.!.G. XG.z.L.4X",
"G..X4XR.7XR.L..XQ.5XXXP.L.Q.!.6X).m m c Q C Y Y E < q nXxX( ( ) ` ( | xXnXq 1 E E x x K H b n 1XS.L.m.Q.P.F.Q.M.G.Q.z.Q.!.L.Q.G.",
"m.G..X.X4XE.^.Q.P..X XP.G.G.Q.0X!.F.'.cX%X@   Y 2 E V o = zXNX3X3XNXxXO + Q ^ Y P . # ! [.{.].rXI.Q.Q.7XQ.G.~.G.9X4XM.~..X!.!.m.",
"F.F.Q.R.R.R.~..XP. X XP.F.z.M.7XW.R..XeXvX$   I 2 ^ E o + lXmXlXmXmXlX+ + E E I s   . jX{.A.M.7X4X~..XqX.XQ.9X^.uX0X!.4XL.L.Q.N.",
"G.P.G.M.L.R.^.7X.X4X5X.XG.j.m.~.7XE.G.6XjX$ + W ~ ~ W d < V 1 B c , N 1 V W E ,.W + + jXA.M z.E.~.L.N.~.~.~.9X~.R.~.Q.~.m.v.M.v.",
"G. XG.N.L.R.G..XL.L.|. XP.M.L.^.;XV.C.wX[.X = D ,.~ T d 1 N < c l l c , N V W W T : > <X].P.~.W.4XR.m.R.~.^.~.~.v.L.L.=X^.^.R.v.",
"Q. XG.R.N.R.N.L.M.z.F.Q.Q.~.7X~.W.:XW.Q.bX[.! $ o o = lXjXvXcXcXcX{.}.kXlX$ + = = H J eX6XE.:X:X7X7XR.E.7XE.L.=Xb.E.E.4X7X8X~.R.",
".X XL.^.v.L.N.G.4XL.P..X.X0XpX~.N./.W.R.oX{.%X. . . # <X<XXXtXP.XXeX_.eX(.. @ . . jXbX_.4X8X8XU.R.~.R.E.8XR.N.8XN.~.E.^.E.~.~.~.",
"P.P.!.4X~.E.^.M.P. X XF.M.Q.^.G.m.Q.B.m.^.T.J.wX'.XX`.!.L.~.^.T.^.!.OX9X XP.'._.`.XXXXG.m.R.E.B.N.R.N.N.E.N.N.7XR.~.E.~.R.~.~.~.",
"P.Q..X4XR.L.^.G.L. X5X XQ.L.m.j.Z.`.Q.T.^.^.T.^.9X7XL.V.Y.;XW.B.R.R.E.W.R.E.^.K.G.OX.X~.R.L.m.j.z.N.N.R.~.E.V.^.=X=XV.N.R.7X~.N.",
"XX X!.~.^.=X7XR.z.G. X5X.XQ.M.c.F.P.!.!.!..XQ.D.wX5X!.I.-X;XE.b.E.^.W.W.E.=X9XQ.l.K.^.=X=XI.M.v.b.V.R.E.~.~.R.N.4X4XR.R.R.7XR.v.",
" XQ.Q.R.R.4X0X!.x.m.J. X.X^.Q.!.P.I.!.E.I.4X.XD.|.5X6X6XC.C.c.G.!.!.=XE.L.!.9XOXl.m.N.W.!.E.E.4XR.E.^.E.^.~.^.b.^.4X4X7XR.L.m.N.",
"G.P..XR.m.V.~..XQ.G.P. X XR.Q..XJ.D.L.E.E.7XqXT.^.~..X0XL.x.Z.@X'.'.XXP.M.L..XQ.!.G.L.E.!.P.'.5XG.N.L.R.!.7X9XL..X~..X0XL.v.v.!.",
"5X!..X~.R.^.^.Q.4X!.P.XX4X!.Q.Q.x.k.K.~..XqXqX~.+X^.^.qX.XP.H.{.eX'. X XQ.!..X!.4XE.R.!.4X X'.'.j.j.M.^.4XuXuX4X4XQ.Q.0X.XL.m.Q.",
"uXQ.!.4X4X4X^.R.9X X X.X9X9X~.L.F.x.M.!..X4X5X9X.XE.U.+X7X0XP.S.wXP.~.7X=X~.-X4X6X!.E.~.qX9X XP.M.z.M.!..X9X0X9X!.Q.L.4X9X9XL.F.",
"P.x.Q.4XR.N.N.~.uX9XXX.X9X9X~.G.4XL.M.R.!.P.Q.9XQ.^.V.U.W.0X6XS.P.v.T.W.R.V.C.!.pX6X~.~.qX9X XF.5XQ.G.Q.P.P.!..XQ.!.Q.!..XyX.XG."
};
