/* XPM */
static char *c1669e050a4c471989dc6839f4b42dd58fDvp7tIPOtGhmFM[] = {
/* columns rows colors chars-per-pixel */
"64 65 213 2 ",
"   c #201F1F",
".  c #12281B",
"X  c #093A1B",
"o  c #183A1B",
"O  c #1D1D25",
"+  c #231C25",
"@  c #192A26",
"#  c #0B3923",
"$  c #1A3928",
"%  c #1A3432",
"&  c #262528",
"*  c #262D2C",
"=  c #26342C",
"-  c #243A2B",
";  c #262C33",
":  c #2C2934",
">  c #2D2D39",
",  c #332D34",
"<  c #362D3A",
"1  c #2B3333",
"2  c #283736",
"3  c #2C3A3B",
"4  c #343235",
"5  c #37333B",
"6  c #353C39",
"7  c #1C4319",
"8  c #145610",
"9  c #175919",
"0  c #235815",
"q  c #1B6709",
"w  c #1B621B",
"e  c #266819",
"r  c #33771A",
"t  c #3B7C1D",
"y  c #0C4329",
"u  c #18462A",
"i  c #0E5924",
"p  c #145D23",
"a  c #195928",
"s  c #194A33",
"d  c #1D5537",
"f  c #1D5D32",
"g  c #26462B",
"h  c #265829",
"j  c #31552D",
"k  c #284937",
"l  c #2B433A",
"z  c #33493C",
"x  c #295836",
"c  c #26573A",
"v  c #33543B",
"b  c #35583A",
"n  c #176527",
"m  c #1B6327",
"M  c #1C6533",
"N  c #256827",
"B  c #21642D",
"V  c #356928",
"C  c #2B7629",
"Z  c #367A27",
"A  c #3C7B2B",
"S  c #266637",
"D  c #3A6937",
"F  c #2D7B39",
"G  c #377C38",
"H  c #467737",
"J  c #3A3842",
"K  c #423B44",
"L  c #284C45",
"P  c #394945",
"I  c #295747",
"U  c #255B42",
"Y  c #2C5C43",
"T  c #365544",
"R  c #395749",
"E  c #355852",
"W  c #2F6849",
"Q  c #356445",
"!  c #357C43",
"~  c #3A7B46",
"^  c #444848",
"/  c #445449",
"(  c #425552",
")  c #446A45",
"_  c #477848",
"`  c #537D4A",
"'  c #497754",
"]  c #527A54",
"[  c #3B8119",
"{  c #398226",
"}  c #2E8138",
"|  c #3C8434",
" . c #36853A",
".. c #3D833C",
"X. c #5B8403",
"o. c #5D8903",
"O. c #5C8608",
"+. c #5F9103",
"@. c #628D05",
"#. c #638D0A",
"$. c #698C09",
"%. c #659205",
"&. c #6C9906",
"*. c #66920B",
"=. c #69950D",
"-. c #659A0C",
";. c #6E9A0C",
":. c #779B0B",
">. c #719D0D",
",. c #688C13",
"<. c #6B9413",
"1. c #699716",
"2. c #6E9A13",
"3. c #6D961A",
"4. c #739D14",
"5. c #769919",
"6. c #739D1B",
"7. c #75A30D",
"8. c #6EA212",
"9. c #76A215",
"0. c #7AA615",
"q. c #7BA915",
"w. c #76A11B",
"e. c #7AA41C",
"r. c #76AA1A",
"t. c #7DAA1C",
"y. c #7CB11E",
"u. c #44862B",
"i. c #448433",
"p. c #468939",
"a. c #539137",
"s. c #769E21",
"d. c #7A9D22",
"f. c #7E9826",
"g. c #76A221",
"h. c #7BA523",
"j. c #76AA21",
"k. c #7EA923",
"l. c #7DA529",
"z. c #7FA82B",
"x. c #7DB024",
"c. c #328245",
"v. c #3C8549",
"b. c #378848",
"n. c #478846",
"m. c #4E884F",
"M. c #5FA758",
"N. c #67A748",
"B. c #6CAB4C",
"V. c #73AD45",
"C. c #74AC4B",
"Z. c #78AC4A",
"A. c #6DB34A",
"S. c #74B44C",
"D. c #7AB54B",
"F. c #73BA4C",
"G. c #6AAB59",
"H. c #76AD57",
"J. c #6BB359",
"K. c #74B454",
"L. c #7BB353",
"P. c #77B658",
"I. c #7AB45B",
"U. c #74B958",
"Y. c #7CBB5C",
"T. c #79906E",
"R. c #7B9979",
"E. c #5CA562",
"W. c #6AAC67",
"Q. c #76AB67",
"!. c #6CB365",
"~. c #77B768",
"^. c #6FAE76",
"/. c #76B974",
"(. c #6EC05F",
"). c #7AC25A",
"_. c #7BC266",
"`. c #7BC176",
"'. c #83AA1A",
"]. c #81AD1D",
"[. c #83B21D",
"{. c #859D2B",
"}. c #86A826",
"|. c #82AC25",
" X c #82AB2B",
".X c #8BAE2B",
"XX c #85B124",
"oX c #89B526",
"OX c #86B22C",
"+X c #89B42D",
"@X c #8EBA2D",
"#X c #83AB32",
"$X c #89A932",
"%X c #9AAE37",
"&X c #8AB233",
"*X c #89B434",
"=X c #92B936",
"-X c #96C334",
";X c #8AAE4C",
":X c #87BA4D",
">X c #82B457",
",X c #83BB57",
"<X c #839C6B",
"1X c #849A79",
"2X c #81AD6A",
"3X c #83BA67",
"4X c #84A675",
"5X c #85B477",
"6X c #83C35E",
"7X c #83C46E",
"8X c #7D7F83",
"9X c #7C9384",
"0X c #78AA85",
/* pixels */
"6.#X#X X+Xt.0.w.OX*Xz.g.X.6.4.0.].-X;.;.t.%.>.;.6.4.e.9.].[.[.=.6. X#X X+Xe.0.4.+X*X Xe.X.6.4.0.].-X;.;.t.%.2.;.6.4.0.:.'.w.2.k.",
"<.#.4.s.z.6.k.6.e.w.<.6.6.|.6.4.t.t.t.t.4.>.<.2.k.|.9.;.oX+XXX<.<.O.2.d. X6.k.w.w.w.<.6.2.z.w.4.t.t.t.t.4.=.2.2.k.k.7.;..Xh.*.6.",
"e.O.4.h.h.3.l.h.t.k.w.#X|.g.#.#.*X|.=.|.w.OX<.*.w.|.9.q.OX6.2.4.e.X.4.h.h.3.l.z.e.k.6. Xk.6.#.#.+X|.=.|.0.OX<.%.6.k.9.q.=Xe.2.e.",
"k.OXh.g.h.w.l.l.k.=.h. X Xe.e.e.oX4.0.>.9.oXe.e.e.w.q.t.t.5.h.e.k. Xh.h.h.w.e. Xk.=.h. X Xw.w.e.+X4.q.>.;.XX|.e.e.w.0.XX}.6.9.0.",
" Xk.e.4.4.z.z.l.w.k.XXw.k.w.=.o.e.&.;.0.9.;.&.*.e.;.;.4.7.9.h.}.+X|.w.4.6.#Xz.l.w.k.XXw.k.w.=.@.e.;.=.0.9.;.&.%.e.;.;.7.9.4.w.r.",
"|.k.9.#.#.l.l.6.<.0.0.<.k.w.oX|.@X;.7.q.7.&.@.;.XX;.=.7.[.t.5.d.h.|.w.#.9X#Xh.6.<.e.0.<.k.w.+X|.@X>.7.t.7.&.%.&.XX-.&.7.[.}.4.8.",
"w. X*Xl.6.k.4.=.=.|. X=.<.X.4.9.t.&.0.&.>.XX4.9.e.2.5.t.XX'.R.4.'.#X*X$Xf.|.4.<.=.|.#X<.3.X.4.4.t.&.0.&.>.oX>.9.e.4.;.q.[.}.5.8.",
"=.6.#X#X X+Xt.0.w.OX*Xz.g.X.6.4.0.].-X;.;.1X%.>.;.6.4.e.T.}..XR.) H m.` m.H }.'.5.&X;X Xe.X.6.4.0.].-X;.;.t.%.2.;.6.4.0.:.}..Xk.",
"=.<.#.4.s.z.6.k.6.e.w.<.6.3.k.6.4.t.t.t.t.4.>.<.2.|.|.9.4.+X>XW.n._ n.H m.m.4XR.$X{.9X<.6.9X$Xw.4.t.t.t.t.4.=.2.2.k.k.7.;..X*Xt.",
"2.e.X.4.h.h.3.z.h.t.k.w.z.k.g.#.#.*X X=.|.w.OX<.T.9XR b ] n.H H G.K.G.~.~.W.V h ` _ _ ) j v 6.T.#.+X|.*.|.0.+X<.@.6.x.9.q.=X5.-.",
"k.h.+X6.h.k.6.z. XOXo.h.*X*X6.k.+X=X=.t.=.=.=Xh.h.}.g h H V p.t ).F.F.~.M.`.e 0 H D _ ` h j d.1X X=X=.t.=.#.=Xk.h.k.6.0.oX.X6.9.",
"h.k.#Xh.e.s.6.h.<.k.6.=Xs.h. X6.,. X<.X.R.3.j b ' D ~.~.I.U.K.S.F.F.F.).e i.a.Z ~.~.~.Q.~.5Xj g #.|.2.X.=.3.6.@.4.|.9.%.&.,.#.-.",
" X+Xz.3.s.h.t.].<.h. X#X|.h.#X<.1Xl.4X,.0X0Xh 9 H H ).K.D.F.F.F.F.F.F.U.[ r r H ~.P.~.~.G.~.7 D 3.6.6.X.w.6.2.@.3.g.2.0.w.}.}.r.",
"4.h.3.,.e.h.w. Xw.#X X3.*X6.w.}./ ] _ D _ n.G i.7XN.A.F.S.F.S.K.P.P.K.F.(.).).K.u.H P.~.G.3X2X4Xg T  X4.e.4.h.k.e.w.9.%.>.{. X9.",
"h.XX4.4.6.<.,.l.s. Xh.6. X#.$XR.H _ H n.G V r [ D.F.D.F.S.F.D.I.P.P.P.A.).A.A.L.t t K.Y.N.H.~.5Xg / =X6.6.=.h.*Xe.k.|.0.h.}.=Xj.",
"h.|.;.0.<.O.,.#X3.3.2.k.6.4.' ` 5X~.H.J.U.Y.).S.F.).V.D.D.D.L.H.I.I.H.L.).V.N.).K.,XY.K.r a.8 j j . R.e.w.e.w.e.4.|.|.oX X5.d.r.",
"h.=X+X2.6.2.6.*X3.3.6.6.3.e.) H 5XB.Y.K.S.L.L.L.N.>XZ.Z.L.L.Z.L.L.L.K.V.L.>X>XI.H.I.H.,Xt u.8 0 7 g ,.e.h.k.4.=.*.k.;.9.e.,.5.j.",
"*.e. X3.*X X4.k.w. X X=.T.5.` _ i.r V.>XZ.L.Z.>X>X>XL.>XL.>X:XZ.Z.D.:X:XV.B.>X~.~.K.Y.B.D.I.3X5Xj z * = *.4.4.4.@.9.@.-.|.5.5.w.",
"#.<.k.t.+X%.t.h.6. X Xd.5.0XD i.t [ ,XN.>X>XH.>X2X>X>X>X>X>XZ.>X:XV.D.V.>X,XI.H.3XC.K.L.L.K.H.5X7 D $ = |.*.|.4.+Xt.;.[.7.[.e.-.",
"<.=.=.|.t.9.&X4.3. X6.T.' ~ Q.I.L.Z.D.:XZ.>X>X>X>XZ.>X>XZ.L.Z.>X,XV.D.H.B.Y.,XN.,XZ.D.F.F.V.H.~.Q.4.x j g $ .X'.XXOX|.q.&.:.:.-.",
"6.2.2.=.#.9.|.h.h.*X1Xe._ G ~._.V.V.:XD.Z.>XZ.Z.>X>XZ.L.>X,XZ.V.D.K.K.,XI.B.B.L.7XD.D.D.N.6X7X~.~./.h x X - .X}.9.e.9.y.&.:.&.%.",
"6.e.e.=.4.e.%.OXh.,. XR.^.W.J.J.L.D.:XV.,X,X,X:X>X,XZ.:XZ.Z.6X6XK.L.B.C.~.Y.3XK.r t K.D.Y.A.e u.0 9 _ ~ D R . * &.>.>.[.0.'.>.-.",
" X6.2.9.9.0.#.k.6.X.d.^.0X`.`.J.K.Z.,XD.,XV.V.V.V.,XD.D.,XC.N.V.F.Y.Y.Y.K.B.I.I.r a.U.U.K.K.{ p.N e n.' u T - z &.9Xq.q.0.oX'.9.",
" Xh.4.t.#.4.;.4.w.h.V j G C | { _.B.S.S.D.D.L.D.D.D.S.V.Y.D.Y.L.u.t U.K.H.J.K.I.G.K.A { J.7X~.W.9 m ! _ ' ] . % 7.9.0.q.0.[.t.r.",
"h.h.e.+X4.w.t.=.d.<Xj h n...} C 7XP.Y.S.S.).D.D.6XS.S.L.D.K.U.U.[ e S.U.H.7X7XG.~.3XZ Z ~.W.~.!.9 B v.~ ] ' - g '.7.9.q.9.'.'.8.",
"3.2.e.k.XX4.w.=.<X{.5XQ.!.J.a.{ Z Z K.).A.A.[ [ A.C.Y.A.P.K.r t Y.)._.U.t r A A W./.v.p.w w /.E.v.n.p B ' ~ $ l .Xt.'.%.;.XXXX1.",
"$Xe.h.k.5.0.|.|.1XQ.2X~.J.!.| { Z u.P.K.A.).{ { Y.H.K.~.N.~.u.Z U.!.J.K.u.i.i.G /.W.G  .w w `.^.c.G B a ' ' $ - }.[.9.XX0.XX0.+.",
"d.h.h.w.4.OX&Xe.1X4XQ.~.u.{ q q U.J.U.J._.N.K.U.r u.J.~.J.~.q w p.C J._.r a.Q.~.N a F ! b.G n n v.~ a f B d v T 2 ; t.y.;.;.=.3.",
"6. Xh.6.#.>.1X1X4X2X~.~.{ r q q J.~.P.J.J.7X`.~.i.p.~.~.~.~.C q e m.~.P.e i././.9 S b.! v.G m S v.~ f a x Q v l 1 ; .X}.4.$.$.g.",
"z. Xk.k.4.|.0.1Xm.H H Z )._.{ { ~.G.~.~.| e G.!.A Z 9 e ~.~.C ..}  .C p.~.~.W.W.9 n n n b.v.B i a f f W X # T R J 3 q.|.|.5.@.j.",
"#X3.|. Xk. Xh.4XH V i.r J.U.r t ~.3X~.!.n.n.`.G.G n.w 8 ~.W...n...|  .Z `.~././.C S p n ! ! m a M f d d # k L P P ; 4. X&X.X5.3.",
"h.O.h.k.e.;.5.4X` ` Q.7XJ.!.7X~.A t G.~.e | w e /.!.| p.N e p.C M.~.~.!.e 8 W.^.M b.N n B B f x S c c x T T % 2 ; ; 4. Xe..Xk.-.",
"3.#.w.|.+Xw.w.R.Q G !.W./.!.G.P.i.p.3X/.n.| w w W.W.G G e 8 | | _.E.!._.w w /./.n.c.p m 9 M B a s U c U T k 2 J ; J 9.w.g..X}.3.",
",.#X6.*X+XX.,.f.` _ ^./.8 e 3X`.0 0 V Z N w !.^.~./.G A `.!.| Z | | !.M.C w 9 n  .G  .v.m p B S Q T $ # R L 3 2 J : : < h.=X].1.",
"e.h.3.6.6.}.4.&X' _ ^./.e e J.~.0 e H | e w W./.~.W.| | ~.J.A | C p.!.`.w m n w c.F v.v.p h S s c Y $ s L l P @ ; J J : e.'.+X-.",
".X#X#Xs.6.h.6.k.d.9Xj N i.Z { { H.2X2X~.w m n M ^.E.p.i.K.I.B.~.e i M n b.F } b.n i n.~ h Q $ o R T z L $ % J = J P % * 9.:.|.9.",
" X|.e.4.d. X#X Xg. Xx 0  .{ { { >X2X2XQ.N h i M 0X0X .A I.3X3XG.9 M i S b.c.b.} n n ! ~ c k $ g b k R T l $ @ = / z = 6 0.5.'.e.",
"|.h.9.*.#.l.h.6.; - ) m.!.(.(.N.H.H.2X5X9 0 m.~ M M a N 0 0 H.~.v.m.M p i n ! c.c.b.M f c d U Y s # L R @ 1 P 1 ^ / = & oX'.>.9.",
"6.#X*X#X6.k.5.=.* - ] G M.(.(.A.3X>X3X2Xh h ] ' a x x x B V /.^.n.c.i B f M ! c.b.v.i f S d U U # y Y E * 3 1 * ^ ^ & z .X'.>.2.",
"&.6. X$X X*X0.0.6 k Q _ (.J.{ { H.H.H H o 7 Q ~ c Y y X x x x 9 ! v.S c S f M i a M f Y U d Y U d U u 2 3 ; * P 6 6 9.}.2.].XXk.",
"=.<.,.2.w.|.d.k.@ $ _ n.~.G.{ | ~.~.H ` 7 7 ] m.c d u s I U d W m.S a x b h x x h x S g c T T L L W . 3 > > 4 : & * OX9.;.oXoX|.",
"6.h.X.4.h.l.3. X4 l v g ~ ..w N G G h j o 7 j h h c c d s y U d x f D z - = z b u u . g T T 2 $ l R l ; > J > < ,.d.z.0.0.+X0.-.",
"}.e.&Xw.h.l.6.#X1 2 k b ' _ a B ~ _ x x o u x h S B f d y y U U d Q g T * = T z - - - - ^ P * 6 / z : < J > < : k.k.6.g.+XXX:.w.",
"h.}.+Xh.e.h.6.w.<. X= - c b 7 X X s x c c S x a v.v.~ ! M U d U c c $ 2 @ 3 g $ b z - = 1 6 4 , 4 4 : : J J : : 5.|.6.+.&.$.$.-.",
"|.#X#X3.6.h.t. X<.l.5 1 P L % L # % I I d U S n  . . . .m f c Y c T s % % 3 $ $ v z = 3 1 4 5 , < 4 , J : < J < 1.g.2.w.e.'.'.r.",
"4.h.3.<.s.h.0.|.w.#X& 6 3 % % % E I I I I U M p v. .C  . .! M c I P % % L T $ $ T R P P 1 > 5 < , 4 < , < K J + 0.w.w.#.<.0.}.w.",
"h.XX2.w.6.,.,.l.s. X5 : O 3 % % E L I U U d d a ! G } }  .b.a c T ( 2 % E I % s c c T R 3 ; 3 > > 4 4 5 : * & 4 h.k.|.g.h.].+Xk.",
"h. X4.0.2.O.,.#X3.<.& K 6.2.J 2 E L E Y y # S U m p b. .F G m c $ 3 J % E E k c u 2 R P 3 ; > > > 3 5 4 g.0.^ * 4. X|.&X|.>.e.r.",
"t.*X+X4.6.2.6.*X3.<., & <.e.& = z T c x o X c Y x i ~ c.c. .m h $ % 1 2 T T R R $ - T P > : J < > 5 3 : h.|.  * <.t.4.w.h.$.4.|.",
"=.h.#X4.*X|.2.|.g.#X#X<.=.5.h.+Xv b $ 7 j b k L E d W i c.b.p h T T 3 ; 5 1 z ^ $ @ 1 6 < : J < < 5 , , =.4.4.=.@.d.o.-.k.>.4.8.",
"*.<.|.k.+X%.h.h.6.#X|.6.>.;.0.%Xv b o o b b P k E d d M c.v.m x c l = 1 3 * P / 2 4 , , < J 5 < < 5 : 6 t.%.|.9.&X|.;.XXw.'.'.-.",
"<.*.=.|.t.4.+X4.2.#X6.0.;.@.;.|.  = 6 = / z k $ U d U M f S u 7 x v L P z 1 * 6 & 5 < < , , < < 5 5 0.XXoX9.XX9.XXXX|.q.&.:.:.-.",
"4.4.2.=.#.9.k.t.h.*XOXe.;.o.%.q.6 , & = ^ 2 @ s Y c x S x c # s T T z z @ * 1 4 * 5 + : 5 < < & & 4 ;.0.k.t.XXt.9.q.9.y.;.:.&.&.",
"6.e.e.=.9.0.&.OXg.<.z.e.9.;.4.t.oXe.;.0.6 z |.%XT c T c c b k $ . % R ( z 6 * 6 : , K K , 5 >.t.^ 4 ;.>.e.].t.'.&.>.8.y.q.'.>.%.",
"k.6.2.9.9.0.o.h.6.X.6.e.k.|.OX|.k.k.0.e.@ 5 4.|.z T z k k T @ 2 3 J J P = @ 4 6 , + < , + ,  X|.& & 9.t.XXt.;.t.&.0.t.r.q.XX].9.",
"z.h.4.h.#.4.;.2.g.h.l.w.e.oXOX0.5.0.9.0.].0.;.t.1 2 P T 2 2 * 3 ; ; 5 3 @ 4 6 : s.}., K K < XXe.9.0.9.9.].0.;.y.>.0.q.t.0.[.e.r.",
"h.h.e.@X4.w.t.*.6.z.h.6.3.w.e.<.=.4.4.@.e.9.;.[.4 P P P ; 1 6 > 5 3 < : 6 1 4 & 6.k.& , , , e.=.&.4.;.%.e.9.&.[.q.9.8.r.9.[.e.w.",
"3.2.e.k.|.4.9.2.6.6. Xk.<.4.4.#.*.9.9.&.XX9.>.e.8X'.* * J 4 O < 5.3.< : 1 & 4.=.6.6.#Xk.5 + 5.#.=.5.9.=.oX0.&.t.'.'.t.+.&.oX|.-.",
"*Xh.h.k.4.0.|.k.O.h.6.k. X|.@.*.#.9.e.OXt.e.].&.t.[., = 6 : < 5 &Xs.J , 6 *  X|.O.h.6.k.5 * @.=.#.4.e.oXt.e.t.&.t.[.9.XXw.XX0.+.",
"6.g.h.9.9.OX+Xe.X.<.,.*Xh.6.<. X0.w.2.0.q.0.q.&.0.[.t.|.6 , <.4.d.h.h.w.6.XXOXe.O.<.<.*Xh.6.<.|.e.w.4.0.r.0.0.&.q.].t.k.2.:.;.1.",
"3.z.k.w.#.>.4. X Xh.<.e.e.|.t.k.&.=.4.4.t.[.].9.t.t.XX|.,   O. X3. Xh.w.%.>.9.|. Xh.<.w.h.k.e.k.=.=.4.4.t.|.XX9.e.t.x.x.4.$.@.g.",
"}. Xh.k.9.|.w.w. Xs.h.k.h.w.4.w.=.#.%.4.XX+X&XOX].0.0.|.OX9.,.l.z.z.h.k.4.|.w.w. Xs.h.z.h.w.9.w.&.@.=.9.XX+X+XoXXX0.0.z. X5.#.g.",
"*X3.h.|.k.|.w.6. Xh. X2.+X=X|.=.o.%.w.w.k.OX|.OXk.4.&.|.OXOX5.3.#X6. X|.k.XXw.w.OXg. X2.+X=X|.*.o.%.w.9.k.XXXX+Xe.9.;. X#X.X5.1.",
"g.O.l.|.e.;.4.h.=Xk.z.|.*Xe.e.t.XX9.=.0.9.w.9.k.e.e.4.k.h.&Xz.3.s.O.l.k.0.=.4.t.=Xk. XXX+Xe.e.e.+X9.=.e.6.9.9.k.e.e.8. Xh..X}.1.",
"g.O.l.|.e.;.4.h.=Xk.z.|.*Xe.e.t.XX9.=.0.9.w.9.k.e.e.4.k.h.&Xz.3.s.O.l.k.0.=.4.t.=Xk. XXX+Xe.e.e.+X9.=.e.6.9.9.k.e.e.8. Xh..X}.1."
};
